<svg id="ѓЊѓCѓ_x201E_Ѓ_x5B__1" xmlns="http://www.w3.org/2000/svg" viewBox="0 0 781 127"><style>.st0{fill:#fff}.st1{fill:#ec1c24}</style><path class="st0" d="M73 63.8c0 17.8-14.5 32.3-32.3 32.3-17.8 0-32.3-14.4-32.3-32.3 0-17.8 14.5-32.3 32.3-32.3C58.5 31.5 73 46 73 63.8z"/><path d="M473.8 31.7l-5.9 12.6h-10l-24.2 51h-27.6c-6.8-12.4-12.7-25.3-19.5-37.4l.4-.7-12.2 25.6h10.8l-5.2 12.7h-39.6l6.2-12.7h10.8s12.8-25.1 18-38h-13.2l6.4-13.1h40c6.6 12.2 12.7 25.3 19.5 37.5l11.8-25.3h-10.6l5.2-12h38.9zM543 31.6l-5.6 12.9H527l-17.8 37.7h.7 18l16.9-17.7h12l-14.4 31h-85.7l5.7-12.8h11.8l18.3-38.3H480l5.7-12.8H543zM111.6 63.6l-.6-.5L3.5.9c.3.6 35.7 28.9 35.7 28.9h-1C23.6 28.9 9.7 36.7 4 49.7-.9 60.1.3 74.4 7.6 83.3c7.8 10 19.3 14.2 31.5 14.4l1-.2L3.6 128l108-64.4zM39.1 95.5c-10.7-.9-20.6-6-26.1-15.8-5.1-8-5.3-20.3-1.4-29 3.9-10.8 15.3-17.5 26.3-18.5 12.7-1.4 23.4 4.9 30 14.4 5.9 8.8 6.8 21.9 1.8 31.4-5.6 11-17.6 18.3-30.6 17.5zM665.6 37.8c-2.9-3.4-7.3-5.2-10.2-5.6-1.5-.1-3.6-.5-6.1-.6l-23.6-.4-26.3.4c-13.5.5-26.2 12-32.4 23.6-5.8 9.7-14 22.4-5.6 34.1 2.7 3.9 6.8 5.1 10.8 6.1 3.8.6 6.1.3 9.1.5l16.8.1 17.1-.1c5.6-.3 11.2-.1 17-1.1 16.1-3.9 24.9-20.6 31.5-34.5 2.5-5 7.5-15.2 1.9-22.5zm-41.3 35.3c-2.7 6.8-9.9 10.4-16.8 10.9-5-.2-11.4.8-13.6-4.8-.7-6.6 3-12 5.3-17.8 3.7-7.3 7.3-18.8 18.5-18.3 5.6 0 13.2-.6 15.4 5.1.1 8.6-8.8 24.9-8.8 24.9zM241.2 39.6c-2-3.9-5.2-7.3-10-7.6h-81.3s-6.5 12.3-6.7 12.8c0 0 13 .2 12.1-.1h1l-17.8 37.9h-13l-4.9 12.8h85c15.8-1.7 25.1-18.2 30.7-30.9 3-7.8 7.4-16.1 4.9-24.9zm-46.6 38.2c-5.2 7-22.4 5.4-22.4 5.4-.2.5 18.5-38.6 18.5-38.6s16.2-2.2 15.9 3.7c1.5 2.9-9.8 27.9-12 29.5zM779.7 37c-1-2.2-2-4.9-5.8-5.2l-89.4.1-5.9 12.9H691.4c0 .1-.1.1-.1.2l-17.9 37.9h-11.7l-5.6 12.9h57.1l6.3-12.8h-12.2l6.2-12.6h37.2c4.6-.2 9-.5 9.9-.9 7.4-2 11.3-10 14.7-16.1 2.1-3.6 5.4-10.3 4.4-16.4zm-38.2 15.3c-.7 2.2-2.3 4.5-4.2 5.6-.4.5-4.1.9-6.5 1h-12l6.4-13.7h15.7c3.2 1.3 1.4 4.9.6 7.1z"/><path class="st1" d="M62 52.4s-3.2-1-5.7-1H25.1l-3.4 6.4h5.5C26.3 60 21.6 70 22 70h-3.7l-3 6.4h40l1.9-.2 1.6-.3 1.7-.7 1.2-.5c4.4-2.4 7.7-7.8 7.7-12.8-.7-4.4-2.6-7.5-7.4-9.5zm-9 12.9c-.8 2.5-3.1 3.9-5.5 4.4h-8.1l5.8-12s5-.5 6.7 1.2c2 .9 2.3 4.8 1.1 6.4z"/><path d="M313.3 74.8c-1 2.5-3.4 5-5.9 6.3-5.4 2.2-12 2.9-17.8.8-1.7-.7-3.2-2.7-3.4-4.6.3-2.5.6-3.3 1.1-4.8l13.1-28.2H311c2.4-3.9 3.9-8.1 5.9-12.2l.3-.6-48.1.1s-10.2-.1-10.1 0l-5.7 12.6h12.4s-12.6 24.5-16 37.7c-.2 5.4 3.4 10.3 8.3 12.7 10.7 2.9 31 1.7 34.4 1.8 9.9-.3 22-1.1 29.5-9.8 9.6-13 22.1-41.8 22.1-41.8h10l6.3-12.5.2-.6h-38.9c-.1-.4-5.9 13.1-5.9 13.1h11.1c-3.8 10.2-8.9 20-13.5 30z"/></svg>