<svg xmlns="http://www.w3.org/2000/svg" width="435.2" height="500" viewBox="0 0 435.2 500"><path fill="#FFF" d="M282.1 247.3c0 70.2-56.9 127-127 127s-127-56.8-127-127c0-70.1 57-127 127-127 70.2.1 127 56.9 127 127z"/><path d="M434.2 246.7l-2.2-2.1L8.7 0c1.2 2.2 140.4 113.8 140.4 113.8l-3.7.1c-57.3-4-112 26.7-134.7 77.9-19.3 40.7-14.6 97.3 14 132 30.7 39.4 76 56.1 124 56.7l3.7-1L9.4 500l424.8-253.3zM148.7 372c-42-3.4-80.7-23.4-102.7-62-20-31.4-20.7-80-5.4-114 15.3-42.7 60-68.7 103.4-72.7 50-5.4 92 19.3 118 56.6 23.3 34.7 26.6 86.1 7.3 123.4-22 43.4-69.3 72.1-120.6 68.7z"/><path fill="#EC1C24" d="M239.2 202.4s-12.6-3.8-22.6-3.8l-122.6.1L80.7 224h21.8c-3.8 8.5-22.5 47.9-21 47.9l-2.5-.2-12-.1-11.6 25.3 157.4.1 7.5-.8 6.2-1.3 6.7-2.8 4.6-2.2c17.4-9.4 30.2-30.5 30.2-50.5-2.7-16.7-10.2-28.9-28.8-37zm-35.5 50.8c-3.1 9.7-12.3 15.5-21.7 17.4h-32l22.9-47.4s19.6-2.1 26.3 4.6c7.8 3.7 9.2 19.3 4.5 25.4z"/></svg>