<svg id="Layer_1" xmlns="http://www.w3.org/2000/svg" viewBox="0 0 220.9 56"><style>.st0{fill:#fff}</style><path class="st0" d="M42.7.8H3.1v7.8h25.2L0 55h40.8v-7.8H14.5zM96.2 8.6V.8H57.7V55h38.5v-7.8H67V30.8h28.3V23H67V8.6zM143.8 55h9.6l-14.7-24.6c7.7-1.5 11.9-7.1 11.9-13.9C150.6.1 139.7.9 127.9.9h-15V55.2h9.2V30.9h7.6L143.8 55zM122.4 8.4h5.3c8.3 0 14.5-.8 14.5 8 0 5.2-2.7 6.9-10.5 6.9h-9.3V8.4zM164.4 27.9c0-15.6 12.8-27.9 28.2-27.9 15.4 0 28.2 12.4 28.2 27.9 0 15.5-12.8 28.1-28.2 28.1-15.4 0-28.2-12.6-28.2-28.1m47.7.1c0-10.7-8.7-19.7-19.5-19.7s-19.5 9-19.5 19.7c0 10.8 8.6 19.7 19.5 19.7 11 0 19.5-8.9 19.5-19.7"/></svg>