<svg xmlns="http://www.w3.org/2000/svg" width="183" height="119" viewBox="0 0 183 119"><path fill="none" d="M106.6 58H70.5L69 61h43.5l1.5-3z"/><path fill-rule="evenodd" clip-rule="evenodd" fill="#FED32B" d="M38.1-.5H2l-1.5 3H44l1.5-3zM84.1-.5H48l-1.5 3H90l1.5-3zM130.3-.5h-36l-1.6 3h43.5l1.5-3zM140-.5l-1.5 3H182l1.5-3zM2 29.5l-1.5 3H44l1.5-3zM48 29.5l-1.5 3H90l1.5-3zM94.3 29.5l-1.6 3h43.5l1.5-3z"/><path fill-rule="evenodd" clip-rule="evenodd" fill="#FFF" d="M140 29.5l-1.5 3H182l1.5-3z"/><path fill-rule="evenodd" clip-rule="evenodd" fill="#FED32B" d="M2 57.5l-1.5 3H44l1.5-3zM48 57.5l-1.5 3H90l1.5-3z"/><path fill-rule="evenodd" clip-rule="evenodd" fill="#FFF" d="M94.3 57.5l-1.6 3h43.5l1.5-3zM140 57.5l-1.5 3H182l1.5-3z"/><path fill-rule="evenodd" clip-rule="evenodd" fill="#FED32B" d="M2 85.5l-1.5 3H44l1.5-3z"/><path fill-rule="evenodd" clip-rule="evenodd" fill="#FFF" d="M48 85.5l-1.5 3H90l1.5-3zM94.3 85.5l-1.6 3h43.5l1.5-3zM176.1 85.5H140l-1.5 3H182l1.5-3zM38.1 115.5H2l-1.5 3H44l1.5-3zM84.1 115.5H48l-1.5 3H90l1.5-3zM130.3 115.5h-36l-1.6 3h43.5l1.5-3zM140 115.5l-1.5 3H182l1.5-3z"/></svg>