<?xml version="1.0" encoding="utf-8"?>
<!-- Generator: Adobe Illustrator 16.0.0, SVG Export Plug-In . SVG Version: 6.00 Build 0)  -->
<!DOCTYPE svg PUBLIC "-//W3C//DTD SVG 1.1//EN" "http://www.w3.org/Graphics/SVG/1.1/DTD/svg11.dtd">
<svg version="1.1" id="ѓЊѓCѓ_x201E_Ѓ_x5B__1" xmlns="http://www.w3.org/2000/svg" xmlns:xlink="http://www.w3.org/1999/xlink"
	 x="0px" y="0px" width="312.4px" height="500px" viewBox="0 0 312.4 500" enable-background="new 0 0 312.4 500"
	 xml:space="preserve">
<g>
	<g>
		<path fill-rule="evenodd" clip-rule="evenodd" d="M311.4,150.6c0-84-69.9-152.1-156.2-152.1C68.9-1.5-1,66.6-1,150.6
			c0,19,3.7,37.1,10.3,53.9H9.2l0.3,0.5c3.6,9.2,40.7,85.9,46,94.1l99.8,199.4L255,299.1c5.3-8.2,42.4-84.9,45.9-94.1l0.3-0.5h-0.1
			C307.7,187.7,311.4,169.6,311.4,150.6z M155.2,226.6c-40.9,0-74-32.8-74-73.3c0-40.5,33.1-73.3,74-73.3c40.9,0,74,32.8,74,73.3
			C229.2,193.7,196.1,226.6,155.2,226.6z"/>
	</g>
</g>
</svg>
