<?xml version="1.0" encoding="utf-8"?>
<!-- Generator: Adobe Illustrator 16.0.0, SVG Export Plug-In . SVG Version: 6.00 Build 0)  -->
<!DOCTYPE svg PUBLIC "-//W3C//DTD SVG 1.1//EN" "http://www.w3.org/Graphics/SVG/1.1/DTD/svg11.dtd">
<svg version="1.1" id="ѓЊѓCѓ_x201E_Ѓ_x5B__1" xmlns="http://www.w3.org/2000/svg" xmlns:xlink="http://www.w3.org/1999/xlink"
	 x="0px" y="0px" width="1200.7px" height="500px" viewBox="0 0 1200.7 500" enable-background="new 0 0 1200.7 500"
	 xml:space="preserve">
<g>
	<g>
		<path d="M1141.3,203.3l-314.6-44.7c-6.9-1.4-13.8-4.1-20.7-8.2C795,140.8,652.9,30.1,597.8,12.3C521.9-12.3,313.6-8.2,218.4,71.1
			l-11,8.2c-40,30.1-99.3,73.8-169.7,91.6C17,175,1.8,194.1,1.8,214.6v164.1c0,27.3,22.1,50.6,51,50.6h72.8
			c21,41.4,64.5,69.7,113.5,69.7c49.5,0,92.1-27.7,113.1-68.4h498.4c21.3,40.7,64.3,68.4,112.8,68.4c50.8,0,94.5-29.3,114.8-71.8
			l70.1-25.3c28.9-9.6,48.3-35.5,48.3-65.6l5.5-51.9C1206.2,246.1,1179.9,208.8,1141.3,203.3z M239.1,466.2c-51,0-92.4-41-92.4-91.6
			S188,283,239.1,283s92.4,41,92.4,91.6S290.1,466.2,239.1,466.2z M963.3,466.2c-51,0-92.4-41-92.4-91.6s41.4-91.6,92.4-91.6
			c51,0,92.4,41,92.4,91.6S1014.4,466.2,963.3,466.2z M1168.9,280.3l-5.5,53.3v1.4c0,16.4-9.7,30.1-24.8,35.5l-49.2,17.7
			c0.6-4.9,0.9-9.9,0.9-15c0-69.7-57.9-125.8-126.9-125.8c-70.3,0-126.9,56-126.9,125.8c0,8.4,0.9,16.7,2.5,24.6H363.6
			c1.6-8,2.4-16.2,2.4-24.6c0-69.7-57.9-125.8-126.9-125.8c-70.4,0-126.9,56-126.9,125.8c0,7.9,0.8,15.7,2.2,23.2H52.8
			c-8.3,0-16.5-6.8-16.5-16.4V216c0-4.1,2.7-8.2,8.3-9.6c77.2-19.1,140.7-65.6,182.1-97.1l12.4-9.6C323.2,30.1,515,23.3,586.7,46.5
			c42.7,13.7,157.2,99.8,198.7,132.6c11,6.8,23.4,9.2,35.9,10.5l315.9,46.5C1156.5,238.9,1170.3,259.8,1168.9,280.3z M647.4,168.2
			H353.6c-8.3,0-16.6,8.2-16.6,16.4c0,8.2,6.9,16.4,16.6,16.4H646c9.7,0,17.9-8.2,17.9-16.4C664,176.4,657.1,168.2,647.4,168.2z"/>
	</g>
</g>
</svg>
