<?xml version="1.0" encoding="utf-8"?>
<!-- Generator: Adobe Illustrator 16.0.0, SVG Export Plug-In . SVG Version: 6.00 Build 0)  -->
<!DOCTYPE svg PUBLIC "-//W3C//DTD SVG 1.1//EN" "http://www.w3.org/Graphics/SVG/1.1/DTD/svg11.dtd">
<svg version="1.1" id="Layer_1" xmlns="http://www.w3.org/2000/svg" xmlns:xlink="http://www.w3.org/1999/xlink" x="0px" y="0px"
	 width="500px" height="500px" viewBox="0 0 500 500" enable-background="new 0 0 500 500" xml:space="preserve">
<g>
	<g>
		<polygon fill="#010202" points="499,227.7 399.1,227.7 461.5,165.3 431.4,135.2 338.9,227.7 270.3,227.7 270.3,156.7 357.4,69.5 
			327.3,39.4 270.3,96.5 270.3,-1 227.7,-1 227.7,96.5 170.3,39.1 140.2,69.2 227.7,156.7 227.7,227.7 157.3,227.7 69.9,140.3 
			39.8,170.4 97.1,227.7 -1,227.7 -1,270.3 97.1,270.3 36.7,330.7 66.8,360.8 157.3,270.3 227.7,270.3 227.7,339.4 137.2,430 
			167.3,460.1 227.7,399.7 227.7,499 270.3,499 270.3,399.7 330.7,460.1 360.8,430 270.3,339.4 270.3,270.3 341.3,270.3 
			427.6,356.6 457.7,326.5 401.5,270.3 499,270.3 		"/>
	</g>
</g>
</svg>
