<?xml version="1.0" encoding="utf-8"?>
<!-- Generator: Adobe Illustrator 16.0.0, SVG Export Plug-In . SVG Version: 6.00 Build 0)  -->
<!DOCTYPE svg PUBLIC "-//W3C//DTD SVG 1.1//EN" "http://www.w3.org/Graphics/SVG/1.1/DTD/svg11.dtd">
<svg version="1.1" id="Layer_1" xmlns="http://www.w3.org/2000/svg" xmlns:xlink="http://www.w3.org/1999/xlink" x="0px" y="0px"
	 width="500px" height="500px" viewBox="0 0 500 500" enable-background="new 0 0 500 500" xml:space="preserve">
<g>
	<g>
		<path fill="#010202" d="M250,130.9c-65.7,0-119.1,53.4-119.1,119.1c0,65.7,53.4,119.1,119.1,119.1c65.7,0,119.1-53.4,119.1-119.1
			C369.1,184.3,315.7,130.9,250,130.9z M250,326.5c-42.2,0-76.5-34.3-76.5-76.5c0-42.2,34.3-76.5,76.5-76.5
			c42.2,0,76.5,34.3,76.5,76.5C326.5,292.2,292.2,326.5,250,326.5z M271.3,0h-42.6v65.2h42.6V0z M228.7,500h42.6v-65.2h-42.6V500z
			 M434.8,228.7v42.6H500v-42.6H434.8z M65.2,228.7H0v42.6h65.2V228.7z M441.8,88.2l-30.1-30.1l-46.1,46.1l30.1,30.1L441.8,88.2z
			 M58.2,411.8l30.1,30.1l46.1-46.1l-30.1-30.1L58.2,411.8z M365.6,395.7l46.1,46.1l30.1-30.1l-46.1-46.1L365.6,395.7z M134.4,104.3
			L88.3,58.2L58.2,88.2l46.1,46.1L134.4,104.3z"/>
	</g>
</g>
</svg>
