<?xml version="1.0" encoding="utf-8"?>
<!-- Generator: Adobe Illustrator 16.0.0, SVG Export Plug-In . SVG Version: 6.00 Build 0)  -->
<!DOCTYPE svg PUBLIC "-//W3C//DTD SVG 1.1//EN" "http://www.w3.org/Graphics/SVG/1.1/DTD/svg11.dtd">
<svg version="1.1" id="Layer_1" xmlns="http://www.w3.org/2000/svg" xmlns:xlink="http://www.w3.org/1999/xlink" x="0px" y="0px"
	 width="900px" height="500px" viewBox="0 0 900 500" enable-background="new 0 0 900 500" xml:space="preserve">
<g>
	<g>
		<path fill-rule="evenodd" clip-rule="evenodd" fill="#010202" d="M854.5,399.5h-800c-27.6,0-50,22.4-50,50s22.4,50,50,50h800
			c27.6,0,50-22.4,50-50S882.1,399.5,854.5,399.5z M204.5,299.5h500c27.6,0,50-22.4,50-50c0-27.6-22.4-50-50-50h-500
			c-27.6,0-50,22.4-50,50C154.5,277.1,176.9,299.5,204.5,299.5z M354.5,99.5h200c27.6,0,50-22.4,50-50s-22.4-50-50-50h-200
			c-27.6,0-50,22.4-50,50S326.9,99.5,354.5,99.5z"/>
	</g>
</g>
</svg>
