<?xml version="1.0" encoding="utf-8"?>
<!-- Generator: Adobe Illustrator 16.0.0, SVG Export Plug-In . SVG Version: 6.00 Build 0)  -->
<!DOCTYPE svg PUBLIC "-//W3C//DTD SVG 1.1//EN" "http://www.w3.org/Graphics/SVG/1.1/DTD/svg11.dtd">
<svg version="1.1" id="Layer_1" xmlns="http://www.w3.org/2000/svg" xmlns:xlink="http://www.w3.org/1999/xlink" x="0px" y="0px"
	 width="382.8px" height="500px" viewBox="0 0 382.8 500" enable-background="new 0 0 382.8 500" xml:space="preserve">
<g>
	<g>
		<path fill-rule="evenodd" clip-rule="evenodd" fill="#010202" d="M339.3,153.4L194.4,302.2L49.6,153.4c-10.6-11-27.9-11-38.6,0
			c-10.6,11-10.6,28.9,0,39.9l161,165.3c6.1,6.4,14.5,9,22.5,8.1c8,1,16.3-1.7,22.5-8.1l161-165.3c10.7-11,10.7-28.9,0-39.9
			C367.2,142.4,349.9,142.4,339.3,153.4z M339.3,286.5L194.4,435.3L49.6,286.5c-10.6-11-27.9-11-38.6,0c-10.6,11-10.6,28.9,0,39.9
			l161,165.3c6.1,6.3,14.5,9,22.5,8.1c8,1,16.3-1.7,22.5-8.1l161-165.3c10.7-11,10.7-28.9,0-39.9
			C367.2,275.5,349.9,275.5,339.3,286.5z M172,213.4c6.1,6.4,14.5,9,22.5,8.1c8,1,16.3-1.7,22.5-8.1l161-165.3
			c10.7-11,10.7-28.9,0-39.9c-10.6-11-27.9-11-38.6,0L194.4,157L49.6,8.3c-10.6-11-27.9-11-38.6,0c-10.6,11-10.6,28.9,0,39.9
			L172,213.4z"/>
	</g>
</g>
</svg>
