<?xml version="1.0" encoding="utf-8"?>
<!-- Generator: Adobe Illustrator 16.0.0, SVG Export Plug-In . SVG Version: 6.00 Build 0)  -->
<!DOCTYPE svg PUBLIC "-//W3C//DTD SVG 1.1//EN" "http://www.w3.org/Graphics/SVG/1.1/DTD/svg11.dtd">
<svg version="1.1" id="ѓЊѓCѓ_x201E_Ѓ_x5B__1" xmlns="http://www.w3.org/2000/svg" xmlns:xlink="http://www.w3.org/1999/xlink"
	 x="0px" y="0px" width="500px" height="500px" viewBox="0 0 500 500" enable-background="new 0 0 500 500" xml:space="preserve">
<path d="M371.6,321.1L499,448.9l-50,50.1L321.6,371.7c-35.4,24.1-75.5,37.4-117.6,37.4c-56.4,0-104.8-20.1-144.8-60.2
	C19,308.8-1,260.5-1,204c0-56.5,20-104.8,60.2-144.9C99.2,19.1,147.5-1,204-1c56.5,0,104.8,20.1,144.9,60.2
	C389,99.3,409,147.6,409,204C409,246.5,395.7,286.3,371.6,321.1z M308.3,308.3c26.6-26.6,38.5-66.5,38.5-104.3
	c0-37.8-12-75.2-38.5-101.9C281.7,75.4,241.8,60.7,204,60.7c-37.7,0-76.4,13.4-103.2,40.1C74.1,127.6,60.7,166.3,60.7,204
	c0,37.8,13.3,77.7,40.1,104.3c26.7,26.6,65.4,41.1,103.2,41.1C241.8,349.4,281.7,334.8,308.3,308.3z"/>
</svg>
