<?xml version="1.0" encoding="utf-8"?>
<!-- Generator: Adobe Illustrator 16.0.0, SVG Export Plug-In . SVG Version: 6.00 Build 0)  -->
<!DOCTYPE svg PUBLIC "-//W3C//DTD SVG 1.1//EN" "http://www.w3.org/Graphics/SVG/1.1/DTD/svg11.dtd">
<svg version="1.1" id="ѓЊѓCѓ_x201E_Ѓ_x5B__1" xmlns="http://www.w3.org/2000/svg" xmlns:xlink="http://www.w3.org/1999/xlink"
	 x="0px" y="0px" width="781.2px" height="500px" viewBox="0 0 781.2 500" enable-background="new 0 0 781.2 500"
	 xml:space="preserve">
<g>
	<g>
		<path d="M673,276.8c-59.8,0-108.2,49.4-108.2,110.3S613.2,497.5,673,497.5s108.2-49.4,108.2-110.3S732.8,276.8,673,276.8z
			 M673,468.7c-44.2,0-80-36.5-80-81.6s35.8-81.6,80-81.6c44.2,0,80,36.5,80,81.6S717.2,468.7,673,468.7z M108.2,276.8
			C48.5,276.8,0,326.2,0,387.2s48.5,110.3,108.2,110.3c59.8,0,108.2-49.4,108.2-110.3S168,276.8,108.2,276.8z M108.2,468.7
			c-44.2,0-80-36.5-80-81.6s35.8-81.6,80-81.6s80,36.5,80,81.6S152.4,468.7,108.2,468.7z M672.7,187.9
			C665.2,86.1,585.9,5.2,486.1-2.5c-7.8-0.6-14.5,5.3-15.1,13.3c-0.6,7.9,5.2,14.8,13,15.4c85.9,6.6,154.1,76.2,160.6,163.8
			c0.2,3.4-1.3,6.8-4.2,8.7L436.2,373.8c-3.3,2.3-7.7,2.1-10.9-0.3L65.2,139c-2.4-1.8-3.8-4.7-3.8-7.7c0-5.3,4.2-9.6,9.4-9.6h190.6
			c4.5,0,8.3,3.2,9.2,7.7c10.3,51.4,54.6,88.3,106.1,88.3h80c7.8,0,14.1-6.4,14.1-14.4c0-8-6.3-14.4-14.1-14.4h-80
			c-38,0-70.8-27.3-78.4-65.2c-3.6-17.9-19-30.7-36.9-30.7H70.9c-20.8,0-37.6,17.2-37.6,38.4c0,12.1,5.6,23.5,15,30.7l360.1,234.6
			c12.8,9.7,30.2,10.2,43.5,1.2l204.2-175.1C667.3,215,673.7,201.7,672.7,187.9z"/>
	</g>
</g>
</svg>
