<?xml version="1.0" encoding="utf-8"?>
<!-- Generator: Adobe Illustrator 16.0.0, SVG Export Plug-In . SVG Version: 6.00 Build 0)  -->
<!DOCTYPE svg PUBLIC "-//W3C//DTD SVG 1.1//EN" "http://www.w3.org/Graphics/SVG/1.1/DTD/svg11.dtd">
<svg version="1.1" id="Layer_1" xmlns="http://www.w3.org/2000/svg" xmlns:xlink="http://www.w3.org/1999/xlink" x="0px" y="0px"
	 width="610.7px" height="500px" viewBox="0 0 610.7 500" enable-background="new 0 0 610.7 500" xml:space="preserve">
<g>
	<g>
		<path fill="#010202" d="M219.5,298.3c-0.4-28,1.6-55.6,5.9-82.9c4.3-27.2,10.6-54.4,18.7-81.7l-20.7-44.3L0,193.8l22.2,47.6
			l169.3-79c-7.9,26.8-14.1,54.5-18.6,83.1c-4.5,28.6-6.7,57.3-6.7,86.1c0,28.8,2.4,57.4,7.1,85.8c4.8,28.5,12.2,56,22.4,82.7
			l58.3-27.2c-11.6-30.6-20.2-60.3-25.7-89.1C222.9,354.8,219.9,326.4,219.5,298.3z M605.2,199.3c-5-21.6-11.2-42-18.8-61.2
			c-7.5-19.2-16.8-38.4-27.9-57.6c-11.1-19.3-24.2-35.8-39.3-49.5c-15.2-13.8-32.5-23.2-52-28.3C447.7-2.4,426-0.2,402,9.2
			c-24,9.4-41.4,22.6-52.2,39.6c-10.8,17-17.2,35.7-18.9,56.1c-1.8,20.4-0.2,41.4,4.8,63.1c5,21.6,11.2,42,18.8,61.2
			s16.8,38.4,27.9,57.6c11.1,19.3,24.2,35.8,39.3,49.5c15.2,13.8,32.5,23.2,52,28.3c19.5,5.1,41.2,2.9,65.2-6.5
			c24-9.4,41.4-22.6,52.2-39.6c10.8-17,17.2-35.7,18.9-56.1C611.7,242,610.1,220.9,605.2,199.3z M546.7,290.5
			c-5.3,10-13.9,17.3-25.7,22c-12.1,4.8-23.5,5.2-34,1.4c-10.5-3.8-20.4-10.6-29.6-20.5c-9.2-9.8-17.8-22.2-25.9-37.1
			c-8.1-14.9-15.5-31.1-22.4-48.7c-6.9-17.6-12.4-34.5-16.6-50.7c-4.2-16.2-6.2-31.2-6.3-44.8c0-13.6,2.6-25.4,7.7-35.4
			c5.1-9.9,13.8-17.3,25.9-22.1c11.8-4.6,23.1-5.1,33.8-1.4c10.7,3.7,20.7,10.6,29.9,20.6c9.3,10,17.9,22.4,25.9,37.1
			c8,14.7,15.4,30.9,22.3,48.5c6.9,17.6,12.5,34.6,16.7,51c4.2,16.4,6.3,31.4,6.2,44.8C554.6,268.8,552,280.5,546.7,290.5z"/>
	</g>
</g>
</svg>
