<?xml version="1.0" encoding="utf-8"?>
<!-- Generator: Adobe Illustrator 16.0.0, SVG Export Plug-In . SVG Version: 6.00 Build 0)  -->
<!DOCTYPE svg PUBLIC "-//W3C//DTD SVG 1.1//EN" "http://www.w3.org/Graphics/SVG/1.1/DTD/svg11.dtd">
<svg version="1.1" id="Layer_1" xmlns="http://www.w3.org/2000/svg" xmlns:xlink="http://www.w3.org/1999/xlink" x="0px" y="0px"
	 width="416.2px" height="500px" viewBox="0 0 416.2 500" enable-background="new 0 0 416.2 500" xml:space="preserve">
<g>
	<g>
		<path fill="#010202" d="M39.3,34.3c-0.7-1.4-1.8-2.7-3.1-4c-0.5-0.5-1.4-1.3-2.7-2.3c-1.3-1.1-2.5-2.2-3.8-3.3
			c-1.3-1.1-2.5-2.2-3.5-3.1c-1.1-0.9-1.7-1.5-1.8-1.6c-1.4-1.3-2.4-2.7-3-4.1c-0.6-1.5-0.4-3,0.4-4.7c0.6-1.2,1.3-2,2.3-2.6
			c0.9-0.5,1.9-0.8,3-0.9c1.1-0.1,2.2,0.1,3.3,0.4c1.1,0.3,2.2,0.7,3.1,1.2c2.9,1.4,4.9,3.2,6.2,5.4c1.2,2.2,1.2,4.8-0.1,8l8.3,4.1
			c1.2-2.5,1.8-4.9,1.7-7.2c0-2.4-0.6-4.6-1.6-6.7c-1-2.1-2.5-4-4.3-5.7c-1.9-1.7-4-3.2-6.5-4.4c-2.1-1-4.3-1.8-6.7-2.3
			c-2.3-0.5-4.6-0.5-6.8-0.2c-2.2,0.3-4.2,1.1-6.1,2.4c-1.8,1.3-3.4,3.1-4.5,5.5c-0.6,1.2-1,2.5-1.3,3.9c-0.3,1.4-0.2,2.8,0,4.2
			c0.3,1.4,0.9,2.9,1.8,4.5c0.9,1.5,2.3,3,4,4.6c2.8,2.5,5.2,4.6,7.2,6.2c2,1.6,3.6,3.2,5,4.6c0.8,0.8,1.4,1.9,1.8,3.1
			c0.4,1.3,0.1,2.8-0.7,4.6c-0.4,0.9-1,1.7-1.8,2.4c-0.8,0.7-1.7,1.2-2.8,1.4c-1.1,0.3-2.4,0.3-3.9,0.1c-1.5-0.2-3.1-0.8-4.9-1.6
			c-1.7-0.8-3.1-1.8-4.4-2.9c-1.3-1.1-2.2-2.3-2.9-3.7c-0.7-1.4-1-2.8-1-4.4c0-1.6,0.5-3.3,1.3-5.1l-8.3-4.1C0.7,28.9,0,31.7,0,34.3
			c0,2.7,0.6,5.1,1.7,7.3c1.1,2.2,2.7,4.3,4.7,6.1c2.1,1.8,4.4,3.4,7.1,4.7c2.3,1.1,4.8,2,7.3,2.6c2.5,0.6,5,0.7,7.3,0.3
			c2.3-0.3,4.5-1.2,6.5-2.5c2-1.3,3.7-3.3,5-6c0.6-1.2,1-2.6,1.3-4c0.2-1.4,0.2-2.9,0-4.3C40.6,37.1,40.1,35.7,39.3,34.3z
			 M98.7,50.8c0.6-1.9,0.7-3.9,0.5-5.9c-0.3-2-1.2-4.1-2.6-6.3c-1.5-2.1-3.8-4.2-7-6.1l-20-11.8L42.7,66l7.9,4.7L61,53.4L73,60.5
			c3.2,1.9,6.1,3,8.7,3.3c2.6,0.3,4.8,0.1,6.7-0.7c1.9-0.7,3.6-1.8,4.9-3.2c1.4-1.4,2.5-2.8,3.3-4.2S98.2,52.7,98.7,50.8z
			 M90.3,46.9c-0.2,1.2-0.7,2.6-1.5,4.1c-0.9,1.4-1.8,2.5-2.9,3.2c-1.1,0.7-2.1,1-3.3,1.2c-1.1,0.1-2.2,0-3.3-0.3
			c-1.1-0.3-2.1-0.7-3-1.2l-11.6-6.9l8.9-15l11.7,6.9c1.1,0.6,2,1.3,2.8,2.1c0.8,0.8,1.4,1.6,1.8,2.6C90.3,44.6,90.4,45.7,90.3,46.9
			z M141.4,99.1c2.2-3,3.7-6.3,4.7-9.7c1-3.4,1.3-6.7,1-10c-0.3-3.3-1.3-6.4-3-9.5c-1.7-3-4.1-5.7-7.3-7.9c-3.2-2.3-6.5-3.7-9.9-4.3
			c-3.4-0.6-6.7-0.5-9.9,0.3c-3.2,0.8-6.3,2.2-9.1,4.3c-2.9,2.1-5.4,4.6-7.6,7.6c-2.2,3.1-3.8,6.3-4.8,9.7c-1,3.4-1.3,6.7-1,10
			c0.3,3.3,1.3,6.4,3,9.4c1.7,3,4.2,5.6,7.4,7.9c3.2,2.3,6.5,3.7,9.9,4.4c3.4,0.6,6.7,0.5,9.9-0.2c3.2-0.8,6.3-2.2,9.1-4.3
			C136.6,104.7,139.2,102.2,141.4,99.1z M133.8,93.7c-1.5,2-3.1,3.9-5,5.5c-1.9,1.6-3.9,2.8-6.1,3.6c-2.1,0.8-4.4,1.1-6.7,0.8
			c-2.3-0.3-4.6-1.2-6.9-2.8c-2.3-1.6-3.9-3.5-4.9-5.6c-1-2.1-1.5-4.3-1.4-6.6c0.1-2.3,0.5-4.6,1.4-6.9c0.9-2.3,2.1-4.5,3.5-6.5
			c1.5-2,3.1-3.9,5-5.5c1.9-1.6,3.9-2.8,6.1-3.6c2.1-0.8,4.4-1.1,6.7-0.8c2.3,0.3,4.6,1.2,6.9,2.8s3.9,3.5,4.9,5.6
			c1,2.1,1.5,4.3,1.4,6.6c-0.1,2.3-0.5,4.6-1.4,6.9C136.5,89.5,135.3,91.7,133.8,93.7z M192.3,126c2.9-3.4,4.1-7,3.5-10.8
			c-0.6-3.8-3.1-7.6-7.5-11.3l-19.2-16.3L135,127.7l7,6l14-16.5l10.3,8.8c1.6,1.4,2.8,2.7,3.4,4s0.9,2.6,0.8,4
			c-0.2,1.4-0.7,2.8-1.6,4.4c-0.9,1.5-2.1,3.2-3.7,5c-0.8,1-1.6,2-2.4,3.2c-0.8,1.1-1.3,2.3-1.5,3.7l7.5,6.4
			c-0.1-1.5,0.6-3.3,1.9-5.5c1.3-2.2,2.9-4.5,4.9-6.9c1.3-1.6,2.3-3,2.8-4.4c0.5-1.4,0.7-2.7,0.7-3.8c0-1.2-0.3-2.2-0.7-3.1
			c-0.4-0.9-0.9-1.6-1.5-2.2l0.1-0.1c0.4,0.2,1.2,0.4,2.2,0.7c1,0.3,2.2,0.4,3.6,0.2c1.4-0.1,2.9-0.6,4.5-1.4S190.6,127.9,192.3,126
			z M186.5,117.4c-0.3,1.1-1,2.3-2.1,3.6c-1.8,2.1-3.8,3.2-5.8,3.3c-2.1,0.1-4.2-0.8-6.5-2.7l-11.5-9.8l10.6-12.5l11.4,9.7
			c0.9,0.8,1.7,1.6,2.4,2.4c0.7,0.9,1.2,1.8,1.5,2.8C186.8,115.3,186.8,116.3,186.5,117.4z M234.7,158.7l5.6-5.7l-30.2-30l-5.6,5.7
			l11.8,11.7l-31.5,31.7l6.5,6.5l31.5-31.7L234.7,158.7z M276.5,194.6l-40.6,15.8l-0.1-0.1l22.1-37.7l-8.4-9.9l-40.2,34l5.7,6.7
			l31-26.3l0.1,0.1l-21.6,37.4l4.9,5.8l40.4-15.1l0.1,0.1l-31,26.3l5.7,6.7l40.2-34L276.5,194.6z M304.3,231.3L249.6,245l5.5,7.8
			l14.2-4l12.1,17.2l-8.6,12l5.7,8.1l31.4-46.8L304.3,231.3z M285.7,260l-9.2-13.2l23.1-6.5l0.1,0.2L285.7,260z M345.4,295.9
			l-22.3-1.4l10-19.7l-5.5-9.5l-13.1,27.8l-33-2.3l5.3,9.1l24.1,1.3l-10.7,21.5l5.7,9.7l14.1-29.9l30.7,2.2L345.4,295.9z
			 M342.3,390.3l27.2-12.1l-3.4-7.7l-4.6,2.1l-0.1-0.1c1.2-1.7,1.9-3.7,2.2-6c0.2-2.3-0.1-4.5-1.1-6.6c-1.2-2.8-2.8-5-4.7-6.6
			c-1.9-1.6-4-2.7-6.3-3.2c-2.3-0.6-4.7-0.7-7.2-0.4c-2.5,0.3-4.9,1-7.2,2.1s-4.5,2.4-6.4,4c-1.9,1.6-3.4,3.4-4.6,5.5
			s-1.8,4.3-2,6.6c-0.2,2.4,0.3,4.9,1.5,7.5c1.1,2.5,2.5,4.5,4.3,6c1.8,1.5,4,2.4,6.6,2.5l0.1,0.2c-1.9,1.1-3.2,2.3-3.8,3.6
			c-0.6,1.4-0.5,3.1,0.5,5.3c0.3,0.7,0.8,1.5,1.4,2.4c0.6,0.9,1.2,1.6,1.7,2.1l5.3-2.4c-0.1-0.2-0.3-0.4-0.4-0.5
			c-0.1-0.1-0.2-0.3-0.3-0.5l-0.2-0.5c-0.3-0.6-0.4-1.1-0.3-1.7C340.5,391.4,341.1,390.9,342.3,390.3z M339.6,380.2
			c-1.5-0.2-2.9-0.8-4.2-1.7s-2.4-2.3-3.2-4.2c-0.7-1.7-1-3.2-0.8-4.7c0.2-1.5,0.8-2.9,1.6-4.2c0.9-1.3,2-2.4,3.3-3.4
			c1.3-1,2.7-1.8,4.1-2.5c1.5-0.7,3.1-1.2,4.7-1.5c1.6-0.3,3.1-0.4,4.6-0.2c1.5,0.2,2.8,0.8,4.1,1.8s2.3,2.4,3.1,4.3
			c0.7,1.6,1,3.1,0.9,4.5c-0.1,1.4-0.5,2.8-1.3,4.1c-0.7,1.3-1.7,2.4-3,3.4c-1.3,1-2.7,1.9-4.4,2.6c-1.6,0.7-3.2,1.2-4.8,1.5
			C342.7,380.3,341.1,380.4,339.6,380.2z M361.4,418.8l7.5-2.8l-7.6-20.1l-7.5,2.8L361.4,418.8z M402.2,428.7c-1.6,0.2-3,0-4.4-0.6
			c-1.3-0.6-2.5-1.4-3.6-2.5c-1.1-1.1-2-2.4-2.8-3.9c-0.8-1.5-1.5-3.1-2-4.8l-6.3,2l3.9,12.1l-34.7,11.1l2.8,8.8l49.1-15.7
			L402.2,428.7z M415.5,470.9c-0.7-2.8-1.8-5.1-3.4-7c-1.5-1.9-3.3-3.3-5.4-4.4c-2.1-1-4.4-1.6-7-1.7s-5.2,0.2-8,0.9l2.1,8.1
			c1.8-0.4,3.5-0.7,5.1-0.7c1.6-0.1,3,0.1,4.3,0.4c1.3,0.4,2.4,1,3.3,1.9c0.9,0.9,1.6,2.2,2,3.8c0.5,1.8,0.5,3.3,0.2,4.5
			c-0.3,1.2-0.8,2.3-1.6,3.1c-0.7,0.8-1.6,1.5-2.5,2c-1,0.5-1.9,0.8-2.8,1.1c-2,0.5-3.8,0.4-5.6-0.2s-3.4-1.4-5.1-2.6
			c-1.7-1.1-3.3-2.5-4.9-3.9c-1.6-1.5-3.2-2.9-4.8-4.2c-3.2-2.8-6.5-4.8-10.1-5.9c-3.6-1.2-7.5-1.2-11.6-0.2l8.8,34.1l7.3-1.9
			l-6.3-24.3c1.2,0.1,2.4,0.4,3.6,1.1c1.2,0.7,2.4,1.5,3.6,2.5c1.2,1,2.5,2.1,3.7,3.3c1.3,1.2,2.6,2.4,4,3.5
			c1.4,1.2,2.8,2.3,4.3,3.3c1.5,1,3,1.9,4.7,2.6s3.3,1.1,5.1,1.3c1.8,0.2,3.7,0,5.7-0.5c1.6-0.4,3.3-1.1,4.9-2.1
			c1.7-1,3.1-2.3,4.3-4c1.2-1.7,2-3.6,2.5-5.9C416.4,476.6,416.3,473.9,415.5,470.9z"/>
	</g>
</g>
</svg>
