<?xml version="1.0" encoding="utf-8"?>
<!-- Generator: Adobe Illustrator 16.0.0, SVG Export Plug-In . SVG Version: 6.00 Build 0)  -->
<!DOCTYPE svg PUBLIC "-//W3C//DTD SVG 1.1//EN" "http://www.w3.org/Graphics/SVG/1.1/DTD/svg11.dtd">
<svg version="1.1" id="Layer_1" xmlns="http://www.w3.org/2000/svg" xmlns:xlink="http://www.w3.org/1999/xlink" x="0px" y="0px"
	 width="558.7px" height="500px" viewBox="0 0 558.7 500" enable-background="new 0 0 558.7 500" xml:space="preserve">
<g>
	<g>
		<path fill="#010202" d="M68.5,60.9c-1.2-2.5-2.9-4.9-5.2-7.1c-0.9-0.9-2.4-2.3-4.6-4.2c-2.1-2-4.3-4-6.5-6c-2.2-2.1-4.2-3.9-6-5.6
			c-1.8-1.7-2.8-2.6-3.1-2.9c-2.5-2.4-4.1-4.8-5.1-7.4c-0.9-2.6-0.6-5.3,0.9-8.2c1.1-2.1,2.5-3.5,4.2-4.4c1.7-0.9,3.5-1.3,5.3-1.4
			c1.9,0,3.8,0.2,5.7,0.8c1.9,0.6,3.7,1.3,5.4,2.2c5,2.6,8.5,5.9,10.5,9.7s1.9,8.5-0.5,14l14.3,7.6c2.3-4.3,3.4-8.5,3.4-12.6
			c0-4.1-0.8-8.1-2.5-11.8c-1.7-3.7-4.1-7.1-7.3-10.2c-3.2-3.1-6.9-5.8-11.2-8c-3.7-1.9-7.5-3.4-11.6-4.3C50.6,0,46.6-0.2,42.8,0.3
			S35.3,2,32,4.1c-3.3,2.1-6.1,5.2-8.2,9.3c-1.1,2.1-2,4.4-2.5,6.7c-0.5,2.4-0.6,4.8-0.2,7.4c0.4,2.6,1.4,5.2,2.9,7.9
			c1.5,2.7,3.8,5.5,6.8,8.2c4.8,4.5,8.9,8.3,12.3,11.3c3.3,3,6.2,5.8,8.5,8.4c1.4,1.5,2.3,3.4,3,5.6c0.6,2.2,0.1,4.9-1.5,8
			c-0.8,1.5-1.9,2.9-3.3,4c-1.4,1.2-3.1,2-5.1,2.4c-2,0.4-4.3,0.4-6.9,0c-2.6-0.4-5.5-1.5-8.6-3.1c-2.9-1.5-5.4-3.3-7.6-5.2
			c-2.1-2-3.8-4.1-4.9-6.6c-1.2-2.4-1.7-5-1.6-7.8c0.1-2.8,1-5.7,2.6-8.9L3.5,44.2C1,49.3-0.4,54.2-0.5,58.8c-0.1,4.7,0.7,9,2.5,13
			c1.8,4,4.5,7.6,8,10.9c3.5,3.3,7.6,6.2,12.2,8.7c4,2.1,8.3,3.8,12.7,4.9c4.4,1.1,8.7,1.4,12.8,1c4.1-0.4,8-1.8,11.6-4
			c3.6-2.3,6.6-5.7,9-10.2c1.1-2.1,1.9-4.4,2.4-6.9c0.5-2.5,0.5-5,0.2-7.6C70.5,65.9,69.7,63.4,68.5,60.9z M168.6,71.5
			c-2.5-3.8-6.5-7.5-12-11l-34.4-21.8l-49.5,78l13.7,8.7l19-29.9l20.8,13.2c5.5,3.5,10.6,5.6,15,6.2c4.5,0.7,8.4,0.4,11.9-0.8
			c3.4-1.2,6.4-3,8.8-5.4c2.5-2.4,4.5-4.8,6-7.2c1.5-2.4,2.8-5.2,3.9-8.5c1.1-3.3,1.5-6.7,1.1-10.3C172.5,79,171.1,75.3,168.6,71.5z
			 M157.2,85.7c-0.3,2.1-1.3,4.5-2.9,7c-1.6,2.5-3.3,4.3-5.2,5.4c-1.9,1.1-3.8,1.7-5.8,1.9c-2,0.1-3.9-0.1-5.8-0.7
			c-1.9-0.6-3.6-1.4-5.1-2.3l-20-12.7l16.3-25.8L149,71.3c1.8,1.2,3.4,2.4,4.8,3.8c1.4,1.4,2.4,3,3,4.7
			C157.4,81.6,157.5,83.5,157.2,85.7z M259.5,209.2c0.9-2.3,1.5-4.8,1.7-7.4c0.2-2.6-0.1-5.2-0.8-7.9c-0.7-2.7-1.9-5.3-3.7-8
			c-0.7-1-1.9-2.7-3.7-5c-1.7-2.3-3.5-4.7-5.3-7.2c-1.8-2.4-3.4-4.7-4.8-6.7c-1.4-2-2.3-3.1-2.5-3.4c-1.9-2.8-3.1-5.6-3.5-8.3
			c-0.4-2.7,0.4-5.3,2.5-7.9c1.5-1.8,3.1-3,4.9-3.5c1.8-0.5,3.6-0.6,5.5-0.3c1.8,0.3,3.7,1,5.4,1.9c1.8,0.9,3.4,2,4.9,3.2
			c4.4,3.5,7.2,7.4,8.4,11.6c1.3,4.2,0.2,8.7-3.2,13.6l12.6,10.2c3-3.8,5-7.7,5.8-11.7c0.8-4,0.8-8.1-0.2-12
			c-0.9-4-2.7-7.8-5.2-11.5c-2.5-3.7-5.7-7-9.4-10c-3.2-2.6-6.7-4.8-10.6-6.5c-3.8-1.7-7.7-2.7-11.6-3c-3.9-0.3-7.7,0.3-11.3,1.7
			c-3.7,1.4-6.9,4-9.9,7.6c-1.5,1.9-2.8,3.9-3.7,6.1c-1,2.2-1.5,4.6-1.6,7.2c-0.1,2.6,0.4,5.4,1.3,8.3c1,3,2.7,6.1,5.1,9.4
			c3.9,5.4,7.2,9.8,9.9,13.4c2.7,3.6,5,6.9,6.7,9.9c1,1.7,1.7,3.7,1.8,6.1c0.2,2.3-0.8,4.8-3.1,7.6c-1.1,1.3-2.4,2.4-4,3.3
			c-1.6,0.9-3.4,1.3-5.4,1.4c-2,0-4.3-0.4-6.7-1.4c-2.5-0.9-5.1-2.5-7.8-4.7c-2.6-2.1-4.7-4.3-6.4-6.6c-1.7-2.3-2.9-4.8-3.6-7.4
			c-0.7-2.6-0.7-5.2-0.1-8c0.6-2.7,2.1-5.4,4.3-8.2L199.8,165c-3.5,4.5-5.8,9-6.8,13.6c-1,4.6-1,9,0,13.2c1,4.2,2.9,8.3,5.7,12.3
			c2.8,3.9,6.3,7.6,10.3,10.9c3.6,2.9,7.4,5.3,11.5,7.2c4.1,1.9,8.2,3.1,12.4,3.4c4.1,0.4,8.2-0.2,12.1-1.7
			c3.9-1.5,7.6-4.3,10.8-8.3C257.3,213.6,258.6,211.5,259.5,209.2z M342.8,258.7c2.9-1.8,5.3-3.8,7.3-5.9c2-2.1,3.8-4.6,5.5-7.6
			c1.7-3,2.7-6.3,3.1-9.9c0.3-3.6-0.4-7.5-2.1-11.7c-1.7-4.2-4.9-8.6-9.7-13.1l-29.6-28l-63.5,67.1l11.7,11.1l24.4-25.7l17.8,16.9
			c4.8,4.5,9.3,7.5,13.6,9c4.3,1.5,8.2,2,11.8,1.5C336.7,261.8,339.9,260.6,342.8,258.7z M326.3,246.7c-2-0.2-3.8-0.8-5.5-1.8
			c-1.7-0.9-3.3-2-4.6-3.3L299,225.3l21-22.2l17.4,16.5c1.6,1.5,2.9,3,4,4.7c1.1,1.6,1.8,3.4,2,5.2c0.3,1.9,0,3.8-0.7,5.8
			c-0.7,2-2.1,4.1-4.2,6.3c-2,2.1-4.1,3.6-6.1,4.3C330.2,246.7,328.2,246.9,326.3,246.7z M409.7,344.4c4.9-4.4,8.8-9.3,11.9-14.7
			c3-5.4,4.9-11,5.7-16.8c0.7-5.8,0.3-11.6-1.5-17.4c-1.7-5.8-4.9-11.3-9.5-16.4c-4.6-5.1-9.7-8.9-15.3-11.3
			c-5.6-2.4-11.3-3.5-17.1-3.4c-5.8,0.1-11.6,1.3-17.3,3.7c-5.7,2.4-11,5.8-15.9,10.2c-5,4.4-8.9,9.3-12,14.8
			c-3,5.4-4.9,11-5.7,16.8c-0.8,5.8-0.3,11.5,1.5,17.3c1.8,5.8,4.9,11.2,9.5,16.4c4.6,5.1,9.7,8.9,15.2,11.3
			c5.5,2.4,11.2,3.5,17,3.4c5.8-0.1,11.6-1.4,17.3-3.7C399.4,352.3,404.7,348.9,409.7,344.4z M376.4,343.6c-4,0.5-7.9,0.1-11.8-1.2
			c-3.9-1.3-7.4-3.9-10.7-7.5s-5.4-7.5-6.3-11.5c-0.9-4-0.9-7.9,0.1-11.8c1-3.9,2.7-7.6,5.1-11.3s5.3-6.9,8.6-9.8
			c3.3-2.9,6.9-5.4,10.7-7.4c3.9-2,7.8-3.3,11.8-3.8c4-0.5,7.9-0.1,11.8,1.2c3.9,1.3,7.4,3.9,10.7,7.5c3.3,3.7,5.4,7.5,6.3,11.5
			s0.9,7.9-0.1,11.8c-1,3.9-2.7,7.6-5.1,11.3s-5.3,6.9-8.6,9.8c-3.3,2.9-6.9,5.4-10.7,7.4C384.3,341.8,380.4,343.1,376.4,343.6z
			 M460.1,422c0.4-2,0.4-3.9,0-5.5c-0.4-1.7-1-3.1-1.6-4.3l0.2-0.2c0.7,0.5,1.8,1.1,3.5,2s3.7,1.5,6.1,1.8c2.4,0.3,5.2,0.1,8.3-0.6
			c3.1-0.7,6.4-2.4,9.9-5c6.3-4.7,9.6-10.4,10.1-17.1c0.5-6.7-2.4-14.1-8.5-22.3l-26.5-35.3L387.7,391l9.7,12.9l30.4-22.8l14.3,19
			c2.2,3,3.7,5.7,4.3,8.2c0.7,2.5,0.6,4.9-0.2,7.2c-0.8,2.3-2.3,4.6-4.4,6.9c-2.1,2.3-4.9,4.6-8.3,7.2c-1.8,1.3-3.6,2.8-5.4,4.5
			c-1.8,1.6-3.1,3.5-4,5.7l10.4,13.9c0.5-2.5,2.2-5.4,5.3-8.8c3.1-3.3,6.8-6.6,11.1-9.9c2.9-2.2,5-4.4,6.4-6.5
			C458.8,426.1,459.7,424,460.1,422z M453.6,394.9l-15.9-21.2l23.1-17.3l15.8,21c1.2,1.7,2.3,3.4,3.2,5.1c0.9,1.8,1.4,3.6,1.5,5.4
			c0.1,1.8-0.4,3.6-1.3,5.5c-1,1.8-2.6,3.6-5,5.3c-3.9,2.9-7.7,4.1-11.3,3.4C460,401.4,456.7,399,453.6,394.9z M518,412l-11.8,7.5
			l15.7,24.7l-66.1,42.2l8.7,13.6l66.1-42.2l15.8,24.8l11.8-7.5L518,412z"/>
	</g>
</g>
</svg>
