<?xml version="1.0" encoding="utf-8"?>
<!-- Generator: Adobe Illustrator 16.0.0, SVG Export Plug-In . SVG Version: 6.00 Build 0)  -->
<!DOCTYPE svg PUBLIC "-//W3C//DTD SVG 1.1//EN" "http://www.w3.org/Graphics/SVG/1.1/DTD/svg11.dtd">
<svg version="1.1" id="Layer_1" xmlns="http://www.w3.org/2000/svg" xmlns:xlink="http://www.w3.org/1999/xlink" x="0px" y="0px"
	 width="457.7px" height="500px" viewBox="0 0 457.7 500" enable-background="new 0 0 457.7 500" xml:space="preserve">
<g>
	<g>
		<path fill="#010202" d="M431.9,401.3c-7.1-21.9-12.5-46.7-16.2-74.2c-2.4-18.4-6.8-33.3-13-44.9c-6.2-11.6-13.3-20.8-21.3-27.5
			c-8-6.7-16.3-11.3-24.8-13.7c-8.5-2.4-16.4-3.6-23.5-3.6l-0.2-1.3c3.8-1.8,9.6-5.3,17.6-10.3c8-5.1,15.8-12.7,23.3-22.8
			c7.5-10.1,13.6-22.9,18.2-38.4c4.6-15.5,5.4-34.4,2.5-56.6c-5.3-39.7-22.3-69-51-87.9C315,1.3,274.8-4.7,223.3,2.1L0,31.8
			l62.1,467.6l81.9-10.9L118.4,296l120.5-16c18.8-2.5,34.5-2.1,47.1,1.1s23.1,9.5,31.5,18.8c8.3,9.3,14.9,21.6,19.5,36.7
			c4.7,15.2,8.4,33.4,11.3,54.8c1.5,11.4,3.6,23.1,6.3,35.1c2.7,12.1,7.8,22.7,15.2,32l87.8-11.7
			C447.6,438.4,439.1,423.2,431.9,401.3z M301.5,189.3c-11.9,14.2-30.9,23.1-57.1,26.6l-134.3,17.8L90.7,87.7l132.9-17.6
			c10.5-1.4,20.8-1.9,30.8-1.4c10.1,0.4,19.3,2.8,27.6,7c8.3,4.2,15.3,10.7,20.9,19.6c5.6,8.8,9.4,20.6,11.4,35.5
			C317.7,155.5,313.4,175.1,301.5,189.3z"/>
	</g>
</g>
</svg>
