<?xml version="1.0" encoding="utf-8"?>
<!-- Generator: Adobe Illustrator 16.0.0, SVG Export Plug-In . SVG Version: 6.00 Build 0)  -->
<!DOCTYPE svg PUBLIC "-//W3C//DTD SVG 1.1//EN" "http://www.w3.org/Graphics/SVG/1.1/DTD/svg11.dtd">
<svg version="1.1" id="Layer_1" xmlns="http://www.w3.org/2000/svg" xmlns:xlink="http://www.w3.org/1999/xlink" x="0px" y="0px"
	 width="595.9px" height="500px" viewBox="0 0 595.9 500" enable-background="new 0 0 595.9 500" xml:space="preserve">
<g>
	<g>
		<path fill="#010202" d="M32.8,285.7c3.8,7.2,5.5,14.5,5.2,21.9c-0.4,7.4-2.2,14.6-5.4,21.6c-3.2,7-7.7,13.8-13.4,20.3
			C13.4,355.9,7.1,362,0,367.6l21.1,26.5l50.6-40.3L187.5,499l36.8-29.3L60.1,263.8L32.8,285.7z M395.5,251.6
			c-9.8-13.9-21.6-23.3-35.3-28.2c-13.7-4.9-27.6-4.2-41.6,2l-0.4-0.6c7.8-11.1,11.4-22.4,10.6-33.9c-0.8-11.6-5-22.8-12.7-33.6
			c-6.6-9.4-14.5-16.4-23.5-20.9c-9-4.5-18.4-6.9-28.2-7c-9.8-0.2-19.6,1.4-29.4,4.6c-9.8,3.3-18.9,7.8-27.3,13.8
			c-10.9,7.7-19.3,16.4-25.3,26.1c-6,9.8-9.7,20.1-11.1,30.9c-1.4,10.8-0.7,21.9,2.1,33.3c2.8,11.4,7.7,22.4,14.7,33.2l35-24.7
			c-4.1-5.4-7.3-11.2-9.5-17.4c-2.3-6.2-3.4-12.5-3.4-18.8c0-6.3,1.4-12.3,4.2-17.9c2.8-5.6,7.2-10.6,13.4-15
			c9.8-6.9,19.8-9.8,30-8.7c10.1,1.1,18.5,6.3,25,15.5c4.6,6.6,7.1,13.1,7.6,19.5c0.4,6.5-0.7,12.6-3.4,18.3
			c-2.7,5.7-6.6,11.2-11.6,16.2c-5,5.1-10.5,9.5-16.3,13.4l18.4,26.1c6.8-5.1,13.8-9.7,20.9-13.8c7.1-4.1,14.2-6.7,21.3-7.9
			c7.1-1.2,14.1-0.5,20.8,2.1c6.7,2.6,13.1,8.1,19,16.5c8.7,12.3,11.4,24.6,8.2,36.8c-3.2,12.2-10.6,22.5-22.3,30.7
			c-13.7,9.7-27.1,12.6-40.1,8.7c-13-3.9-23.9-12.5-32.8-25.9l-35,24.7c8.2,11.1,17.1,20.1,26.9,27c9.8,6.9,20.1,11.4,31,13.6
			c10.9,2.2,22.2,1.7,34.1-1.3c11.8-3,24-8.9,36.5-17.7c10.2-7.2,18.9-15.6,25.9-25.2c7.1-9.6,12.1-19.6,15.1-30.2
			c3-10.5,3.7-21.3,2.1-32.3C407.1,272.4,402.7,261.8,395.5,251.6z M595.5,168.1c-1.3-14.9-5.1-29.8-11.4-44.8
			c-6.3-14.9-13.4-28.8-21.2-41.7c-7.8-12.8-16.9-25.5-27.3-38C525.1,31.2,513.6,21,501,13c-12.7-8-26.3-12.6-41-13.8
			c-14.7-1.2-30,3.1-46.1,12.9S387,33.6,381.3,47.2c-5.7,13.6-7.8,27.8-6.5,42.7c1.3,14.9,5.1,29.8,11.4,44.8
			c6.3,14.9,13.4,28.8,21.2,41.7s16.9,25.5,27.3,38c10.4,12.5,21.9,22.7,34.6,30.7s26.3,12.6,41,13.8c14.7,1.2,30-3.1,46.1-12.9
			s26.9-21.5,32.6-35.1C594.7,197.2,596.8,183,595.5,168.1z M553.5,196.3c-2.5,7.9-7.8,14.2-15.7,19c-8.1,5-16.2,6.7-24.3,5.3
			c-8.1-1.4-16-5.1-23.9-11c-7.9-5.9-15.6-13.7-23.3-23.4c-7.7-9.7-15.1-20.4-22.3-32.2c-7.2-11.8-13.3-23.2-18.3-34.4
			c-5-11.2-8.4-21.7-10.2-31.5c-1.7-9.8-1.4-18.6,1.1-26.4c2.4-7.8,7.7-14.2,15.9-19.1c7.9-4.8,16-6.6,24.1-5.2
			c8.2,1.3,16.2,5,24.1,11.1c7.9,6,15.7,13.8,23.3,23.4c7.6,9.6,15,20.3,22.2,32.1c7.2,11.8,13.3,23.3,18.4,34.6
			c5.1,11.3,8.5,21.8,10.2,31.5C556.5,179.7,556.1,188.5,553.5,196.3z"/>
	</g>
</g>
</svg>
