<?xml version="1.0" encoding="utf-8"?>
<!-- Generator: Adobe Illustrator 16.0.0, SVG Export Plug-In . SVG Version: 6.00 Build 0)  -->
<!DOCTYPE svg PUBLIC "-//W3C//DTD SVG 1.1//EN" "http://www.w3.org/Graphics/SVG/1.1/DTD/svg11.dtd">
<svg version="1.1" id="Layer_1" xmlns="http://www.w3.org/2000/svg" xmlns:xlink="http://www.w3.org/1999/xlink" x="0px" y="0px"
	 width="676.8px" height="500px" viewBox="0 0 676.8 500" enable-background="new 0 0 676.8 500" xml:space="preserve">
<g>
	<g>
		<path fill="#010202" d="M116.3,58.7c-0.4,13.7-4,25.9-10.7,36.3c-6.7,10.5-15.3,19.5-25.9,27.1c-10.6,7.6-22.8,13.8-36.5,18.5
			C29.4,145.4,15,148.9,0,151.3l8.8,56.3l107.7-16.9L164.9,500l78.2-12.3L174.5,49.6L116.3,58.7z M675.9,295.6
			c-2-21-7-40.3-15.1-57.7c-8-17.5-18.7-32.3-31.9-44.4c-13.2-12.1-28.9-21.1-46.8-27c-18-5.9-37.9-7.8-59.7-5.7
			c-19.8,1.9-37.7,8-53.9,18.2c-16.2,10.3-28.3,24.7-36.3,43.3l-1.4-1.1c-0.1-9.7-0.1-20.2-0.2-31.5c0-11.2,0.7-22.7,2.1-34.3
			c1.4-11.6,3.6-22.7,6.7-33.4c3-10.7,7.4-20.3,13.1-28.9c5.8-8.6,13.1-15.8,22.1-21.5c9-5.7,20-9.2,33-10.5
			c18.9-1.8,34.5,2.3,46.7,12.4c12.2,10.1,20,24.1,23.4,42l71.9-6.9c-2.6-18-8.4-34-17.3-48c-9-14-20-25.7-33-35
			c-13-9.4-27.6-16.2-43.7-20.6c-16.1-4.4-33-5.8-50.7-4.1c-31.1,3-56.6,12.4-76.5,28.3c-19.9,15.9-35.3,35.5-46.2,58.8
			c-10.9,23.3-17.9,48.7-21,76.2c-3.1,27.5-3.4,54.4-0.8,80.9c3.1,32.4,8.3,62.3,15.6,89.8c7.3,27.5,18,51.1,31.9,70.8
			c14,19.7,32,34.5,53.9,44.5c22,10,49.1,13.4,81.5,10.3c21.9-2.1,41.5-7.8,58.8-17.1c17.3-9.3,31.9-21.4,43.6-36.3
			c11.7-14.9,20.2-31.9,25.4-50.8C676.4,337.2,678,317,675.9,295.6z M602.5,336c-2.1,11.5-6,21.7-11.7,30.7s-13.2,16.6-22.3,22.8
			c-9.2,6.2-20.3,9.9-33.3,11.2c-13,1.2-24.7-0.2-35.1-4.3c-10.4-4.1-19.3-10.1-26.9-18.1c-7.6-8-13.5-17.3-18-27.9
			c-4.4-10.6-7.2-22-8.4-34.2c-1.2-12.2-0.6-23.9,1.7-35.2c2.3-11.2,6.4-21.3,12.4-30.1s13.6-16.2,23-21.9
			c9.4-5.8,20.6-9.3,33.7-10.5c13-1.3,24.6,0.2,34.8,4.3c10.2,4.1,18.9,10,26.2,17.5c7.3,7.6,13.1,16.7,17.3,27.3
			c4.2,10.6,6.9,21.8,8,33.6C605.1,313,604.6,324.6,602.5,336z"/>
	</g>
</g>
</svg>
