<?xml version="1.0" encoding="utf-8"?>
<!-- Generator: Adobe Illustrator 16.0.0, SVG Export Plug-In . SVG Version: 6.00 Build 0)  -->
<!DOCTYPE svg PUBLIC "-//W3C//DTD SVG 1.1//EN" "http://www.w3.org/Graphics/SVG/1.1/DTD/svg11.dtd">
<svg version="1.1" id="Layer_1" xmlns="http://www.w3.org/2000/svg" xmlns:xlink="http://www.w3.org/1999/xlink" x="0px" y="0px"
	 width="478.2px" height="500px" viewBox="0 0 478.2 500" enable-background="new 0 0 478.2 500" xml:space="preserve">
<g>
	<g>
		<path fill="#010202" d="M449.3,371.5c-8.9-20.4-16.4-43.7-22.4-69.8c-4-17.4-9.6-31.4-16.6-42c-7-10.6-14.7-18.7-23-24.4
			c-8.3-5.7-16.7-9.3-25.1-10.9c-8.4-1.5-16.1-1.9-22.9-1.2l-0.3-1.3c3.4-2.1,8.8-6,16-11.6c7.2-5.6,14-13.6,20.3-24
			c6.3-10.4,11-23.3,14-38.6c3-15.3,2-33.5-2.9-54.7c-8.7-37.7-27.8-64.3-57.1-79.7C299.8-2.1,260.7-4.1,211.9,7.2L0,56.4L103,500
			l77.7-18l-42.4-182.7l114.3-26.5c17.8-4.1,32.9-5.2,45.4-3.3c12.4,1.9,23.1,7,32,15.2c8.9,8.2,16.3,19.4,22.2,33.5
			c5.9,14.1,11.2,31.3,15.9,51.6c2.5,10.8,5.6,21.8,9.3,33.2c3.7,11.4,9.6,21.1,17.6,29.3l83.3-19.3
			C467.8,405.7,458.2,391.9,449.3,371.5z M304.3,179.9c-10.1,14.8-27.6,25.1-52.4,30.8l-127.4,29.6L92.4,101.7l126.1-29.3
			c9.9-2.3,19.8-3.7,29.5-4.2c9.7-0.5,18.8,0.9,27.2,4.2c8.4,3.3,15.7,8.9,21.9,16.8c6.2,8,10.9,19,14.2,33
			C316.7,145.9,314.4,165.1,304.3,179.9z"/>
	</g>
</g>
</svg>
