<?xml version="1.0" encoding="utf-8"?>
<!-- Generator: Adobe Illustrator 16.0.0, SVG Export Plug-In . SVG Version: 6.00 Build 0)  -->
<!DOCTYPE svg PUBLIC "-//W3C//DTD SVG 1.1//EN" "http://www.w3.org/Graphics/SVG/1.1/DTD/svg11.dtd">
<svg version="1.1" id="Layer_1" xmlns="http://www.w3.org/2000/svg" xmlns:xlink="http://www.w3.org/1999/xlink" x="0px" y="0px"
	 width="709.7px" height="500px" viewBox="0 0 709.7 500" enable-background="new 0 0 709.7 500" xml:space="preserve">
<g>
	<g>
		<path fill="#010202" d="M134.3,21.8c-1.9,14.7-6.9,27.3-15.2,37.8c-8.3,10.5-18.5,19.3-30.6,26.4c-12.1,7.1-25.8,12.5-41.1,16.1
			C32.2,105.7,16.3,108,0,109l3.6,61.3l117.2-6.9L140.6,500l85.2-5L197.7,18.1L134.3,21.8z M699.6,270.4
			c-6.8-19.6-16.7-36.5-29.6-50.9c-13-14.4-28.8-25.6-47.4-33.8c-18.7-8.2-39.8-12.3-63.5-12.4c-21.4,0-41.3,4.6-59.7,13.9
			c-18.4,9.3-32.9,23.5-43.4,42.6l-1.4-1.4c0.9-10.5,2-21.7,3.1-33.8c1.1-12,3.1-24.2,5.8-36.5c2.7-12.3,6.3-24,10.6-35.1
			c4.3-11.1,10-21,17.1-29.7c7.1-8.6,15.7-15.6,26-20.8c10.2-5.2,22.4-7.8,36.5-7.8c20.5,0,36.7,6.1,48.8,18.1
			c12,12.1,19,27.9,20.8,47.5l77.8,0.1c-0.9-19.5-5.4-37.3-13.6-53.2c-8.2-15.9-18.7-29.6-31.7-41c-13-11.4-27.9-20.3-44.7-26.7
			C594.3,3.2,576.3,0,557.2,0c-33.7,0-62,7.4-85,22.4c-23,15-41.6,34.4-55.7,58.3c-14.1,23.9-24.3,50.4-30.5,79.5
			c-6.2,29.1-9.3,58-9.3,86.7c0,35,2.4,67.7,7.4,97.9c5,30.3,13.9,56.7,26.9,79.2c12.9,22.5,30.7,40.3,53.2,53.3
			c22.5,13,51.3,19.5,86.3,19.5c23.7,0,45.3-4,64.9-12.2c19.6-8.2,36.4-19.7,50.5-34.4c14.1-14.8,24.9-32.1,32.5-51.8
			c7.5-19.8,11.3-41.3,11.3-64.5C709.8,311.2,706.4,290,699.6,270.4z M626.8,369.6c-3.4,12.1-8.7,22.6-15.7,31.7
			c-7.1,9.1-15.8,16.5-26.3,22.2c-10.5,5.7-22.8,8.5-36.9,8.5c-14.1,0-26.5-2.8-37.2-8.2c-10.7-5.5-19.7-12.9-26.9-22.2
			c-7.3-9.3-12.7-19.9-16.3-31.8c-3.6-11.8-5.4-24.3-5.4-37.5c0-13.2,1.8-25.7,5.5-37.5c3.6-11.8,9.1-22.2,16.4-31
			c7.3-8.9,16.3-15.9,27-21.1c10.7-5.2,23.1-7.8,37.2-7.8c14.1,0,26.4,2.7,36.8,8.2c10.5,5.5,19.2,12.6,26.3,21.5
			c7,8.9,12.3,19.2,15.7,31.1s5.1,24.1,5.1,36.9C631.9,345.2,630.2,357.6,626.8,369.6z"/>
	</g>
</g>
</svg>
