<?xml version="1.0" encoding="utf-8"?>
<!-- Generator: Adobe Illustrator 16.0.0, SVG Export Plug-In . SVG Version: 6.00 Build 0)  -->
<!DOCTYPE svg PUBLIC "-//W3C//DTD SVG 1.1//EN" "http://www.w3.org/Graphics/SVG/1.1/DTD/svg11.dtd">
<svg version="1.1" id="Layer_1" xmlns="http://www.w3.org/2000/svg" xmlns:xlink="http://www.w3.org/1999/xlink" x="0px" y="0px"
	 width="624.3px" height="500px" viewBox="0 0 624.3 500" enable-background="new 0 0 624.3 500" xml:space="preserve">
<g>
	<g>
		<path fill="#010202" d="M117.7,442.7c-1.3-5.7-1.1-11.9,0.5-18.6c1.6-6.6,4-13.5,7.1-20.6c3.2-7.1,6.8-14.5,10.9-22.1
			c4.1-7.7,8.1-15.5,12-23.6c3.9-8.1,7.3-16.3,10.4-24.8c3.1-8.5,5.3-17.1,6.5-25.8c1.3-8.7,1.2-17.5-0.1-26.3
			c-1.3-8.8-4.5-17.7-9.5-26.6c-4.1-7.2-9.5-14.2-16.4-20.9c-6.8-6.7-15-11.8-24.5-15.5c-9.5-3.6-20.1-5.1-31.8-4.4
			c-11.7,0.7-24.3,4.9-38,12.6c-12.6,7.1-22.4,15.5-29.4,25.2c-7,9.7-11.7,20.3-14,31.6c-2.3,11.4-2.1,23.3,0.5,35.7
			c2.6,12.4,7.4,24.8,14.4,37.1L53,335.3c-4.2-8-7.6-15.8-10-23.4c-2.5-7.6-3.7-14.7-3.6-21.3c0.1-6.6,1.7-12.7,4.8-18.3
			s8.4-10.4,15.6-14.5c7.9-4.4,15-6.7,21.4-6.8c6.4-0.1,12.1,1,17.1,3.4c5,2.4,9.3,5.6,12.8,9.6c3.5,4,6.5,8.1,8.7,12.1
			c4.7,8.9,6.8,17.8,6.3,26.9c-0.5,9.1-2.4,18.4-5.8,27.9c-3.4,9.5-7.6,18.9-12.6,28.4c-5.1,9.5-9.7,18.9-14,28.3
			c-9.4,18.7-14.5,37.5-15.4,56.3c-0.9,18.8,3.7,37.5,13.9,56.1L245,413.9l-18.4-32.6L117.7,442.7z M388.2,201.3
			c-6.3-13.2-13.9-26.4-22.8-39.5c-8.9-13.1-19-24.2-30.5-33.1c-11.5-9-24.3-14.8-38.4-17.4c-14.1-2.6-29.4,0.1-46,8
			c-16.5,7.9-28.2,18.2-35,30.8c-6.8,12.6-10.3,26.2-10.5,40.8c-0.2,14.6,2.1,29.5,6.7,44.6c4.7,15.1,10.2,29.3,16.5,42.5
			c6.3,13.2,13.9,26.4,22.8,39.5s19,24.2,30.5,33.1c11.5,9,24.3,14.8,38.4,17.4c14.1,2.6,29.5-0.1,46-8c16.5-7.9,28.2-18.2,35-30.8
			c6.8-12.6,10.3-26.2,10.5-40.8c0.2-14.6-2.1-29.4-6.7-44.6C400,228.7,394.5,214.5,388.2,201.3z M367.9,311.7
			c-3.2,7.4-8.9,13-17.1,16.9c-8.4,4-16.4,5-24.1,2.8c-7.7-2.2-15-6.5-22.1-13c-7.1-6.5-13.8-14.9-20.3-25
			c-6.5-10.2-12.7-21.3-18.5-33.4c-5.8-12.1-10.6-23.8-14.4-35.2c-3.8-11.3-6.1-21.8-6.8-31.5c-0.7-9.7,0.5-18.2,3.6-25.5
			c3.1-7.3,8.9-13,17.3-17c8.2-3.9,16.1-4.8,23.9-2.7c7.8,2.1,15.2,6.5,22.3,13.1c7.1,6.6,13.9,15,20.3,25
			c6.5,10.1,12.6,21.2,18.4,33.3c5.8,12.1,10.7,23.9,14.5,35.3c3.9,11.4,6.1,21.9,6.8,31.5C372.4,295.8,371.1,304.3,367.9,311.7z
			 M623.9,183.9c-1-11.3-3.4-21.8-7.2-31.3c-4.5-11.3-10.4-21.2-17.6-29.7c-7.2-8.4-15.4-15-24.6-19.6c-9.2-4.6-19.3-7-30.2-7.3
			c-10.9-0.2-22.2,2-34.1,6.7c-7.9,3.2-15.3,7.9-22.2,14.2c-6.8,6.3-11.7,13.4-14.5,21.4l-1-0.4l-12-65.5L555,34.7L541.1,0
			L417.8,49.3L444.4,190l38.8-15.5c-0.2-9.7,2.7-17.5,8.6-23.4c5.9-5.9,13-10.5,21.1-13.8c7.7-3.1,15-4.4,21.9-4
			c6.9,0.4,13,2.2,18.5,5.2c5.4,3.1,10.3,7.3,14.5,12.6c4.2,5.3,7.7,11.2,10.3,17.8c2.9,7.3,4.9,14.4,6,21.3
			c1.1,7,0.8,13.5-0.8,19.7c-1.6,6.2-4.7,11.8-9.3,16.8c-4.6,5-11,9.1-19.1,12.4c-12.7,5.1-24.3,5.7-34.8,1.9
			c-10.5-3.8-18.9-12-25.2-24.5l-38.8,15.5c5.3,11.9,11.9,21.4,19.9,28.6c8,7.2,17,12.4,26.9,15.5s20.5,4.3,31.6,3.4
			c11.1-0.9,22.4-3.6,34-8.3c14.5-5.8,25.9-13.5,34.3-23c8.3-9.5,14.2-19.8,17.5-30.7C623.7,206.4,624.9,195.2,623.9,183.9z"/>
	</g>
</g>
</svg>
