<?xml version="1.0" encoding="utf-8"?>
<!-- Generator: Adobe Illustrator 16.0.0, SVG Export Plug-In . SVG Version: 6.00 Build 0)  -->
<!DOCTYPE svg PUBLIC "-//W3C//DTD SVG 1.1//EN" "http://www.w3.org/Graphics/SVG/1.1/DTD/svg11.dtd">
<svg version="1.1" id="Layer_1" xmlns="http://www.w3.org/2000/svg" xmlns:xlink="http://www.w3.org/1999/xlink" x="0px" y="0px"
	 width="623.2px" height="500px" viewBox="0 0 623.2 500" enable-background="new 0 0 623.2 500" xml:space="preserve">
<g>
	<g>
		<path fill="#010202" d="M262.4,272.8c-9.5-14-20.9-25.2-34.1-33.6c-13.2-8.5-28-13.8-44.5-15.9c-16.5-2.1-34-0.6-52.6,4.6
			c-12.6,3.5-24.5,9.5-35.9,17.9c-11.4,8.4-19.9,18.4-25.5,30.1l-1.4-0.8l-7.5-101.1l148.9-41.8l-15.4-54.8L0,131.8L17.4,349
			l61.3-17.2c1.3-14.7,6.9-26,16.8-34c9.9-8,21.3-13.8,34.3-17.4c12.2-3.4,23.4-4.3,33.8-2.5c10.3,1.7,19.4,5.4,27.1,11
			c7.7,5.6,14.4,12.7,19.9,21.4c5.5,8.7,9.8,18.2,12.7,28.6c3.2,11.5,5.1,22.5,5.5,33.2c0.5,10.7-1,20.6-4.4,29.7
			c-3.4,9.1-9,17-16.8,23.8c-7.8,6.8-18.1,12-31,15.7c-20.1,5.6-37.7,4.7-53-2.8c-15.2-7.5-26.6-21.2-34.2-41.1l-61.3,17.2
			c6,18.8,14.5,34.3,25.5,46.5c11,12.2,23.7,21.5,38.2,27.8c14.5,6.4,30.3,9.8,47.2,10.2c16.9,0.5,34.5-1.9,52.8-7
			c22.9-6.4,41.5-16.2,55.6-29.2c14.1-13,24.6-27.6,31.5-43.6c6.9-16,10.5-32.7,10.9-50c0.4-17.3-1.6-33.5-5.8-48.5
			C279.2,302.6,271.9,286.7,262.4,272.8z M619.9,247.7c-3.8-18.2-10-34.6-18.6-49.2c-8.6-14.5-19.2-26.5-31.8-35.8
			c-12.6-9.3-27-15.6-43.3-18.9c-16.3-3.2-33.9-2.9-52.8,1.1c-12.8,2.7-25.1,7.8-37,15.5c-11.9,7.6-21,17.1-27.4,28.3l-1.3-0.9
			L407,86.5l151.3-31.8L546.6-1L348.8,40.5l2.9,217.9l62.3-13.1c2.3-14.5,8.6-25.5,19.1-32.8c10.4-7.3,22.2-12.4,35.3-15.1
			c12.4-2.6,23.7-2.7,33.9-0.3c10.2,2.4,19,6.7,26.3,12.7c7.4,6.1,13.5,13.6,18.4,22.7c4.9,9,8.5,18.8,10.7,29.4
			c2.5,11.7,3.6,22.8,3.3,33.5c-0.2,10.7-2.4,20.5-6.4,29.3c-4,8.8-10.2,16.4-18.3,22.7c-8.2,6.3-18.8,10.8-32,13.5
			c-20.4,4.3-38,2.2-52.7-6.4c-14.7-8.5-25.2-23-31.3-43.3l-62.3,13.1c4.8,19.2,12.2,35.2,22.3,48.1c10.1,12.9,22.2,23,36.3,30.3
			c14.1,7.3,29.6,11.8,46.4,13.3c16.9,1.6,34.6,0.4,53.2-3.5c23.3-4.9,42.4-13.4,57.4-25.4c15-12.1,26.4-25.9,34.4-41.4
			c8-15.6,12.7-31.9,14.2-49.2C624,279.3,623.1,263,619.9,247.7z"/>
	</g>
</g>
</svg>
