<?xml version="1.0" encoding="utf-8"?>
<!-- Generator: Adobe Illustrator 16.0.0, SVG Export Plug-In . SVG Version: 6.00 Build 0)  -->
<!DOCTYPE svg PUBLIC "-//W3C//DTD SVG 1.1//EN" "http://www.w3.org/Graphics/SVG/1.1/DTD/svg11.dtd">
<svg version="1.1" id="Layer_1" xmlns="http://www.w3.org/2000/svg" xmlns:xlink="http://www.w3.org/1999/xlink" x="0px" y="0px"
	 width="609.7px" height="500px" viewBox="0 0 609.7 500" enable-background="new 0 0 609.7 500" xml:space="preserve">
<g>
	<g>
		<path fill="#010202" d="M291.2,79.4c-9.2-21.6-23-39.3-41.6-53.1c-18.5-13.8-43.1-22.3-73.5-25.6c-23.5-2.5-44.9-1-64.2,4.5
			c-19.3,5.5-36.1,14.2-50.3,26.3c-14.2,12-25.5,26.7-34,43.9c-8.5,17.2-13.8,36.3-16,57.3c-2.3,22.3-1.2,42.7,3.5,61.3
			c4.7,18.6,12.4,34.8,23,48.7C48.8,256.5,62,267.7,78,276.5c16,8.8,34.2,14.2,54.8,16.4c19.8,2.1,38.4-0.4,55.8-7.6
			c17.4-7.1,31.7-18.6,43-34.5l1.1,1.4c-2.8,14.3-6.2,29.9-10.2,46.7c-4.1,16.9-10,32.5-17.7,46.9c-7.8,14.4-17.8,26-30.2,34.9
			c-12.4,8.9-28.1,12.4-47,10.4c-18.5-2-32.7-9-42.5-21c-9.8-12.1-14.6-27-14.3-44.9l-70.4-7.4c-1,17.8,1.4,34.3,7.3,49.5
			c5.9,15.2,14.2,28.6,24.8,40.1c10.6,11.5,23.3,21,37.9,28.4c14.6,7.4,30.6,12,47.9,13.8c30.5,3.2,56.8-0.9,79.1-12.3
			c22.2-11.4,40.9-27.2,55.9-47.5c15-20.3,26.7-43.3,35.1-69.1c8.3-25.8,13.9-51.6,16.6-77.6c3.3-31.3,4.1-61,2.5-89.1
			C305.8,125.8,300.4,101,291.2,79.4z M236,155.7c-1.3,12-4.1,23.2-8.6,33.8c-4.5,10.6-10.3,19.8-17.6,27.5
			c-7.3,7.8-16.1,13.6-26.5,17.5c-10.4,3.9-22.2,5.2-35.4,3.8c-12.8-1.3-23.6-5.1-32.6-11.2c-8.9-6.1-16.1-13.7-21.4-22.5
			c-5.3-8.9-8.9-19-10.9-30.2c-1.9-11.2-2.3-22.8-1-34.8c1.2-11.5,3.9-22.5,8.2-32.9c4.2-10.4,9.9-19.4,16.9-27
			c7-7.6,15.6-13.2,25.5-17c10-3.7,21.3-4.9,34.1-3.6c13.2,1.4,24.5,5.1,33.8,11.1c9.4,6,16.8,13.3,22.4,22
			c5.5,8.7,9.4,18.6,11.6,29.6C236.7,132.9,237.2,144.2,236,155.7z M552.8,61.1c-4.7,12.7-11.8,22.8-21.3,30.4s-20.4,13.3-32.6,17.1
			c-12.2,3.8-25.5,5.7-39.8,5.8c-14.3,0.1-28.8-1.2-43.5-3.7l-9.4,55.1l105.3,18l-51.9,302.6l76.6,13.1l73.5-428.7L552.8,61.1z"/>
	</g>
</g>
</svg>
