<?xml version="1.0" encoding="utf-8"?>
<!-- Generator: Adobe Illustrator 16.0.0, SVG Export Plug-In . SVG Version: 6.00 Build 0)  -->
<!DOCTYPE svg PUBLIC "-//W3C//DTD SVG 1.1//EN" "http://www.w3.org/Graphics/SVG/1.1/DTD/svg11.dtd">
<svg version="1.1" id="ѓЊѓCѓ_x201E_Ѓ_x5B__1" xmlns="http://www.w3.org/2000/svg" xmlns:xlink="http://www.w3.org/1999/xlink"
	 x="0px" y="0px" width="361.5px" height="500px" viewBox="0 0 361.5 500" enable-background="new 0 0 361.5 500"
	 xml:space="preserve">
<path d="M350.4,456.5c-41.3,50.4-100.8,43.7-119.2,38.2c-5.4-1.6-91.1-22.3-178.1-173.4C-16.9,199.8,0.8,96.8,5.4,77.6
	C9.9,58.9,28.9,14.3,102.7-1c9.2-1.9,25.3,0.9,28.2,6.1c1.3,2.3,28.4,105.9,29,109.2c0.5,3.3,0.4,6.4-0.4,9.2
	c-1.2,4-5.6,8.2-13.1,12.4c-7.5,4.3-15.4,8-23.6,11c-8.2,3-16,6.5-23.4,10.4c-7.4,3.9-11.6,7.6-12.7,11.2
	c-2.4,9.5-4.7,45.3,38.4,114c43.2,68.8,67,91.6,69.4,93.4c2.4,1.8,4.5,3,6.3,3.5c3.6,1.1,9.1-0.4,16.4-4.4
	c7.3-4,33.9-24.2,41.6-28.2c7.7-3.9,13.6-5.3,17.6-4.1c2.8,0.8,5.5,2.4,7.9,4.7c2.5,2.3,75.1,79.9,76.3,82.1
	C363.9,435.7,356.3,449.3,350.4,456.5"/>
</svg>
