<?xml version="1.0" encoding="utf-8"?>
<!-- Generator: Adobe Illustrator 16.0.0, SVG Export Plug-In . SVG Version: 6.00 Build 0)  -->
<!DOCTYPE svg PUBLIC "-//W3C//DTD SVG 1.1//EN" "http://www.w3.org/Graphics/SVG/1.1/DTD/svg11.dtd">
<svg version="1.1" id="ѓЊѓCѓ_x201E_Ѓ_x5B__1" xmlns="http://www.w3.org/2000/svg" xmlns:xlink="http://www.w3.org/1999/xlink"
	 x="0px" y="0px" width="500px" height="500px" viewBox="0 0 500 500" enable-background="new 0 0 500 500" xml:space="preserve">
<g>
	<path stroke="#000000" stroke-width="0.5" stroke-miterlimit="10" d="M95.8,157.8c5.4,0.1,14.2,3.5,18.2,7.5l74.8,74.7
		c1.5,1.5,3.5,2.3,5.5,2.3c2,0,4-0.8,5.5-2.3c3-3,3-7.9,0-11L125,154.3c-6.9-6.9-19.3-12-29.1-12c0,0-0.1,0-0.1,0
		c-0.5,0-41.7,0-61-19.3c-15.2-15.2-18.4-44.5-19.1-56l27.8,27.8c8.4,8.4,22.2,8.4,30.6,0l19.6-19.6c4.1-4.1,6.3-9.5,6.3-15.3
		c0-5.8-2.2-11.2-6.3-15.3L65.9,16.7c11.6,0.7,40.8,3.9,56.1,19.1c19.2,19.2,19.3,60.6,19.3,61c0,9.8,5.1,22.3,12,29.2l74.7,74.7
		c3,3,7.9,3,11,0c3-3,3-7.9,0-11L164.2,115c-3.9-3.9-7.5-12.6-7.5-18.2c0-2,0-48.2-23.8-72C109.1,1,62.7,1,60.9,1
		c-9.8,0.1-13.1,5.4-14,7.7c-0.9,2.3-2.4,8.4,4.5,15.4l31.3,31.3c2.4,2.4,2.4,6.3,0,8.7L63.1,83.7c-2.4,2.4-6.3,2.4-8.7,0L23.1,52.4
		c-6.9-6.9-13.1-5.5-15.4-4.5C5.4,48.8,0,52.1,0,61.9c0,2,0,48.2,23.8,72C47.6,157.7,93.9,157.8,95.8,157.8z"/>
	<path stroke="#000000" stroke-width="0.5" stroke-miterlimit="10" d="M476.2,368.1c-23.4-23.4-68.4-23.8-71.9-23.8
		c-0.1,0-0.1,0-0.2,0c-5.6,0-14.2-3.5-18.1-7.5L311.2,262c-3-3-7.9-3-11,0c-3,3-3,7.9,0,11l74.7,74.7c6.9,6.9,19.3,12,29.1,12
		c0,0,0.1,0,0.1,0c0.6,0.1,41.7,0,61,19.3c15.2,15.2,18.4,44.5,19.1,56.1l-27.8-27.8c-4.1-4.1-9.5-6.3-15.3-6.3
		c-5.8,0-11.2,2.2-15.3,6.3L406.3,427c-8.4,8.4-8.4,22.2,0,30.6l27.8,27.8c-11.6-0.7-40.8-3.8-56.1-19.1
		c-19.2-19.2-19.3-60.6-19.3-61c0.1-9.8-5.1-22.3-12-29.2L272,301.3c-3-3-7.9-3-11,0c-3,3-3,7.9,0,11l74.7,74.8
		c3.9,3.9,7.5,12.6,7.5,18.2c0,2,0,48.2,23.8,72c23.4,23.4,68.4,23.8,71.9,23.8c0.1,0,0.1,0,0.1,0c9.8-0.1,13.1-5.4,14-7.7
		c1-2.3,2.4-8.4-4.5-15.4l-31.3-31.3c-2.4-2.4-2.4-6.3,0-8.7l19.6-19.6c2.4-2.4,6.3-2.4,8.7,0l31.3,31.3c6.9,6.9,13.1,5.5,15.4,4.5
		c2.3-1,7.7-4.2,7.7-14.1C500,438.1,500,391.9,476.2,368.1z"/>
	<path stroke="#000000" stroke-width="0.5" stroke-miterlimit="10" d="M449.9,23.3L405.2,68c-4.1,4.1-6.3,9.5-6.3,15.3
		c0,3.1,0.7,6,1.9,8.8L179.2,311.4l-14.1-14.1c-4.1-4.1-9.5-6.3-15.3-6.3s-11.2,2.3-15.3,6.3L7,424.8c-4.1,4.1-6.3,9.5-6.3,15.3
		c0,5.8,2.3,11.2,6.3,15.3l39.2,39.3c4.1,4.1,9.5,6.3,15.3,6.3s11.2-2.2,15.3-6.3l127.5-127.5c8.4-8.4,8.4-22.2,0-30.6l-14.1-14.1
		l221.5-219.3c2.7,1.2,5.7,1.9,8.8,1.9c5.8,0,11.2-2.3,15.3-6.3l44.7-44.7L449.9,23.3z M193.4,347.5c2.4,2.4,2.4,6.3,0,8.7
		l-25.1,25.1L65.8,483.7c-2.3,2.3-6.4,2.3-8.7,0l-39.3-39.3c-1.2-1.1-1.8-2.7-1.8-4.3c0-1.6,0.6-3.2,1.8-4.3l102.4-102.4l25.1-25.1
		c1.2-1.2,2.7-1.8,4.3-1.8c1.6,0,3.2,0.6,4.3,1.8L193.4,347.5z M424.8,87.6c-2.3,2.3-6.3,2.3-8.7,0c-1.2-1.2-1.8-2.7-1.8-4.3
		c0-1.6,0.6-3.2,1.8-4.3L450,45.2l8.7,8.6L424.8,87.6z"/>
</g>
</svg>
