<?xml version="1.0" encoding="utf-8"?>
<!-- Generator: Adobe Illustrator 19.2.0, SVG Export Plug-In . SVG Version: 6.00 Build 0)  -->
<svg version="1.1" id="Layer_1" xmlns="http://www.w3.org/2000/svg" xmlns:xlink="http://www.w3.org/1999/xlink" x="0px" y="0px"
	 viewBox="0 0 220.9 56" style="enable-background:new 0 0 220.9 56;" xml:space="preserve">
<style type="text/css">
	.st0{fill:#FFFFFF;}
</style>
<g>
	<polygon class="st0" points="42.7,0.8 3.1,0.8 3.1,8.6 28.3,8.6 0,55 40.8,55 40.8,47.2 14.5,47.2 	"/>
	<polygon class="st0" points="96.2,8.6 96.2,0.8 57.7,0.8 57.7,55 96.2,55 96.2,47.2 67,47.2 67,30.8 67,30.8 95.3,30.8 95.3,23 
		67,23 67,8.6 	"/>
	<g>
		<path class="st0" d="M143.8,55h9.6l-14.7-24.6c7.7-1.5,11.9-7.1,11.9-13.9c0-16.4-10.9-15.6-22.7-15.6h-15l0,0.2h0v54.1h9.2V31.1
			v-0.2h7.6L143.8,55z M122.4,8.4h5.3c8.3,0,14.5-0.8,14.5,8c0,5.2-2.7,6.9-10.5,6.9h-9.3L122.4,8.4z"/>
	</g>
	<path class="st0" d="M164.4,27.9c0-15.6,12.8-27.9,28.2-27.9c15.4,0,28.2,12.4,28.2,27.9c0,15.5-12.8,28.1-28.2,28.1
		C177.2,56,164.4,43.4,164.4,27.9 M212.1,28c0-10.7-8.7-19.7-19.5-19.7c-10.8,0-19.5,9-19.5,19.7c0,10.8,8.6,19.7,19.5,19.7
		C203.6,47.7,212.1,38.8,212.1,28"/>
</g>
</svg>
