<?xml version="1.0" encoding="utf-8"?>
<!-- Generator: Adobe Illustrator 16.0.0, SVG Export Plug-In . SVG Version: 6.00 Build 0)  -->
<!DOCTYPE svg PUBLIC "-//W3C//DTD SVG 1.1//EN" "http://www.w3.org/Graphics/SVG/1.1/DTD/svg11.dtd">
<svg version="1.1" id="ѓЊѓCѓ_x201E_Ѓ_x5B__1" xmlns="http://www.w3.org/2000/svg" xmlns:xlink="http://www.w3.org/1999/xlink"
	 x="0px" y="0px" width="435.2px" height="500px" viewBox="0 0 435.2 500" enable-background="new 0 0 435.2 500"
	 xml:space="preserve">
<g>
	<path fill="#FFFFFF" d="M282.1,247.3c0,70.2-56.9,127-127,127c-70.1,0-127-56.8-127-127c0-70.1,57-127,127-127
		C225.3,120.4,282.1,177.2,282.1,247.3z"/>
	<g>
		<path d="M434.2,246.7l-2.2-2.1L8.7,0c1.2,2.2,140.4,113.8,140.4,113.8l-3.7,0.1c-57.3-4-112,26.7-134.7,77.9
			c-19.3,40.7-14.6,97.3,14,132c30.7,39.4,76,56.1,124,56.7l3.7-1L9.4,500L434.2,246.7L434.2,246.7z M148.7,372L148.7,372
			c-42-3.4-80.7-23.4-102.7-62c-20-31.4-20.7-80-5.4-114c15.3-42.7,60-68.7,103.4-72.7c50-5.4,92,19.3,118,56.6
			c23.3,34.7,26.6,86.1,7.3,123.4C247.3,346.7,200,375.4,148.7,372z"/>
		<path fill="#EC1C24" d="M239.2,202.4c0,0-12.6-3.8-22.6-3.8L94,198.7L80.7,224h21.8c-3.8,8.5-22.5,47.9-21,47.9l-2.5-0.2l-12-0.1
			l-11.6,25.3l157.4,0.1l7.5-0.8l6.2-1.3l6.7-2.8l4.6-2.2c17.4-9.4,30.2-30.5,30.2-50.5C265.3,222.7,257.8,210.5,239.2,202.4
			L239.2,202.4z M203.7,253.2L203.7,253.2c-3.1,9.7-12.3,15.5-21.7,17.4h-32l22.9-47.4c0,0,19.6-2.1,26.3,4.6
			C207,231.5,208.4,247.1,203.7,253.2z"/>
	</g>
</g>
</svg>
