<?xml version="1.0" encoding="utf-8"?>
<!-- Generator: Adobe Illustrator 19.2.0, SVG Export Plug-In . SVG Version: 6.00 Build 0)  -->
<svg version="1.1" id="ѓЊѓCѓ_x201E_Ѓ_x5B__1" xmlns="http://www.w3.org/2000/svg" xmlns:xlink="http://www.w3.org/1999/xlink"
	 x="0px" y="0px" viewBox="0 0 781 127" style="enable-background:new 0 0 781 127;" xml:space="preserve">
<style type="text/css">
	.st0{fill:#FFFFFF;}
	.st1{fill:#EC1C24;}
</style>
<g>
	<path class="st0" d="M73,63.8c0,17.8-14.5,32.3-32.3,32.3c-17.8,0-32.3-14.4-32.3-32.3c0-17.8,14.5-32.3,32.3-32.3
		C58.5,31.5,73,46,73,63.8z"/>
	<g>
		<path d="M473.8,31.7l-5.9,12.6h-10l-24.2,51h-27.6c-6.8-12.4-12.7-25.3-19.5-37.4l0.4-0.7l-12.2,25.6l10.8,0l-5.2,12.7h-39.6
			l6.2-12.7l10.8,0c0,0,12.8-25.1,18-38h-13.2l6.4-13.1H409c6.6,12.2,12.7,25.3,19.5,37.5l11.8-25.3l-10.6,0l5.2-12H473.8z"/>
		<path d="M543,31.6l-5.6,12.9l-10.4,0l-17.8,37.7l0.7,0c-0.7,0,18,0,18,0l16.9-17.7h12l-14.4,31h-85.7l5.7-12.8h11.8l18.3-38.3H480
			l5.7-12.8H543z"/>
		<path d="M111.6,63.6l-0.6-0.5L3.5,0.9c0.3,0.6,35.7,28.9,35.7,28.9l-1,0C23.6,28.9,9.7,36.7,4,49.7c-4.9,10.4-3.7,24.7,3.6,33.6
			c7.8,10,19.3,14.2,31.5,14.4l1-0.2L3.6,128L111.6,63.6L111.6,63.6z M39.1,95.5L39.1,95.5C28.4,94.6,18.5,89.5,13,79.7
			c-5.1-8-5.3-20.3-1.4-29c3.9-10.8,15.3-17.5,26.3-18.5c12.7-1.4,23.4,4.9,30,14.4c5.9,8.8,6.8,21.9,1.8,31.4
			C64.1,89,52.1,96.3,39.1,95.5z"/>
		<path d="M665.6,37.8c-2.9-3.4-7.3-5.2-10.2-5.6c-1.5-0.1-3.6-0.5-6.1-0.6l-23.6-0.4l-26.3,0.4c-13.5,0.5-26.2,12-32.4,23.6
			c-5.8,9.7-14,22.4-5.6,34.1c2.7,3.9,6.8,5.1,10.8,6.1c3.8,0.6,6.1,0.3,9.1,0.5l16.8,0.1l17.1-0.1c5.6-0.3,11.2-0.1,17-1.1
			c16.1-3.9,24.9-20.6,31.5-34.5C666.2,55.3,671.2,45.1,665.6,37.8L665.6,37.8z M624.3,73.1L624.3,73.1c-2.7,6.8-9.9,10.4-16.8,10.9
			c-5-0.2-11.4,0.8-13.6-4.8c-0.7-6.6,3-12,5.3-17.8c3.7-7.3,7.3-18.8,18.5-18.3c5.6,0,13.2-0.6,15.4,5.1
			C633.2,56.8,624.3,73.1,624.3,73.1z"/>
		<path d="M241.2,39.6c-2-3.9-5.2-7.3-10-7.6l-81.3,0c0,0-6.5,12.3-6.7,12.8c0,0,13,0.2,12.1-0.1h1l-17.8,37.9h-13l-4.9,12.8h85
			c15.8-1.7,25.1-18.2,30.7-30.9C239.3,56.7,243.7,48.4,241.2,39.6L241.2,39.6z M194.6,77.8L194.6,77.8c-5.2,7-22.4,5.4-22.4,5.4
			c-0.2,0.5,18.5-38.6,18.5-38.6s16.2-2.2,15.9,3.7C208.1,51.2,196.8,76.2,194.6,77.8z"/>
		<path d="M779.7,37c-1-2.2-2-4.9-5.8-5.2l-89.4,0.1l-5.9,12.9h12.7c0,0,0.1,0,0.1,0c0,0.1-0.1,0.1-0.1,0.2l-17.9,37.9l-11.7,0
			l-5.6,12.9h57.1l6.3-12.8l-12.2,0l6.2-12.6h37.2c4.6-0.2,9-0.5,9.9-0.9c7.4-2,11.3-10,14.7-16.1C777.4,49.8,780.7,43.1,779.7,37
			L779.7,37z M741.5,52.3L741.5,52.3c-0.7,2.2-2.3,4.5-4.2,5.6c-0.4,0.5-4.1,0.9-6.5,1h-12l6.4-13.7h15.7
			C744.1,46.5,742.3,50.1,741.5,52.3z"/>
		<path class="st1" d="M62,52.4c0,0-3.2-1-5.7-1l-31.2,0l-3.4,6.4h5.5C26.3,60,21.6,70,22,70L21.4,70l-3.1,0l-3,6.4l40,0l1.9-0.2
			l1.6-0.3l1.7-0.7l1.2-0.5c4.4-2.4,7.7-7.8,7.7-12.8C68.7,57.5,66.8,54.4,62,52.4L62,52.4z M53,65.3L53,65.3
			c-0.8,2.5-3.1,3.9-5.5,4.4h-8.1l5.8-12c0,0,5-0.5,6.7,1.2C53.9,59.8,54.2,63.7,53,65.3z"/>
		<path d="M313.3,74.8c-1,2.5-3.4,5-5.9,6.3c-5.4,2.2-12,2.9-17.8,0.8c-1.7-0.7-3.2-2.7-3.4-4.6c0.3-2.5,0.6-3.3,1.1-4.8l13.1-28.2
			H311c2.4-3.9,3.9-8.1,5.9-12.2l0.3-0.6l-48.1,0.1c0,0-10.2-0.1-10.1,0l-5.7,12.6h12.4c0,0-12.6,24.5-16,37.7
			c-0.2,5.4,3.4,10.3,8.3,12.7c10.7,2.9,31,1.7,34.4,1.8c9.9-0.3,22-1.1,29.5-9.8c9.6-13,22.1-41.8,22.1-41.8H354l6.3-12.5l0.2-0.6
			h-38.9c-0.1-0.4-5.9,13.1-5.9,13.1l11.1,0C323,55,317.9,64.8,313.3,74.8z"/>
	</g>
</g>
</svg>
