<?xml version="1.0" encoding="utf-8"?>
<!-- Generator: Adobe Illustrator 16.0.0, SVG Export Plug-In . SVG Version: 6.00 Build 0)  -->
<!DOCTYPE svg PUBLIC "-//W3C//DTD SVG 1.1//EN" "http://www.w3.org/Graphics/SVG/1.1/DTD/svg11.dtd">
<svg version="1.1" id="Layer_1" xmlns="http://www.w3.org/2000/svg" xmlns:xlink="http://www.w3.org/1999/xlink" x="0px" y="0px"
	 width="183px" height="119px" viewBox="0 0 183 119" enable-background="new 0 0 183 119" xml:space="preserve">
<g>
	<polygon fill="none" points="106.6,58 71.5,58 70.5,58 69,61 71.5,61 106.6,61 112.5,61 114,58 	"/>
</g>
<g>
	<g>
		<polygon fill-rule="evenodd" clip-rule="evenodd" fill="#FED32B" points="38.1,-0.5 3,-0.5 2,-0.5 0.5,2.5 3,2.5 38.1,2.5 44,2.5 
			45.5,-0.5 		"/>
	</g>
</g>
<g>
	<g>
		<polygon fill-rule="evenodd" clip-rule="evenodd" fill="#FED32B" points="84.1,-0.5 49,-0.5 48,-0.5 46.5,2.5 49,2.5 84.1,2.5 
			90,2.5 91.5,-0.5 		"/>
	</g>
</g>
<g>
	<g>
		<polygon fill-rule="evenodd" clip-rule="evenodd" fill="#FED32B" points="130.3,-0.5 95.2,-0.5 94.3,-0.5 92.7,2.5 95.2,2.5 
			130.3,2.5 136.2,2.5 137.7,-0.5 		"/>
	</g>
</g>
<g>
	<g>
		<polygon fill-rule="evenodd" clip-rule="evenodd" fill="#FED32B" points="140,-0.5 138.5,2.5 182,2.5 183.5,-0.5 		"/>
	</g>
</g>
<g>
	<g>
		<polygon fill-rule="evenodd" clip-rule="evenodd" fill="#FED32B" points="2,29.5 0.5,32.5 44,32.5 45.5,29.5 		"/>
	</g>
</g>
<g>
	<g>
		<polygon fill-rule="evenodd" clip-rule="evenodd" fill="#FED32B" points="48,29.5 46.5,32.5 90,32.5 91.5,29.5 		"/>
	</g>
</g>
<g>
	<g>
		<polygon fill-rule="evenodd" clip-rule="evenodd" fill="#FED32B" points="94.3,29.5 92.7,32.5 136.2,32.5 137.7,29.5 		"/>
	</g>
</g>
<g>
	<g>
		<polygon fill-rule="evenodd" clip-rule="evenodd" fill="#FFFFFF" points="140,29.5 138.5,32.5 182,32.5 183.5,29.5 		"/>
	</g>
</g>
<g>
	<g>
		<polygon fill-rule="evenodd" clip-rule="evenodd" fill="#FED32B" points="2,57.5 0.5,60.5 44,60.5 45.5,57.5 		"/>
	</g>
</g>
<g>
	<g>
		<polygon fill-rule="evenodd" clip-rule="evenodd" fill="#FED32B" points="48,57.5 46.5,60.5 90,60.5 91.5,57.5 		"/>
	</g>
</g>
<g>
	<g>
		<polygon fill-rule="evenodd" clip-rule="evenodd" fill="#FFFFFF" points="94.3,57.5 92.7,60.5 136.2,60.5 137.7,57.5 		"/>
	</g>
</g>
<g>
	<g>
		<polygon fill-rule="evenodd" clip-rule="evenodd" fill="#FFFFFF" points="140,57.5 138.5,60.5 182,60.5 183.5,57.5 		"/>
	</g>
</g>
<g>
	<g>
		<polygon fill-rule="evenodd" clip-rule="evenodd" fill="#FED32B" points="2,85.5 0.5,88.5 44,88.5 45.5,85.5 		"/>
	</g>
</g>
<g>
	<g>
		<polygon fill-rule="evenodd" clip-rule="evenodd" fill="#FFFFFF" points="48,85.5 46.5,88.5 90,88.5 91.5,85.5 		"/>
	</g>
</g>
<g>
	<g>
		<polygon fill-rule="evenodd" clip-rule="evenodd" fill="#FFFFFF" points="94.3,85.5 92.7,88.5 136.2,88.5 137.7,85.5 		"/>
	</g>
</g>
<g>
	<g>
		<polygon fill-rule="evenodd" clip-rule="evenodd" fill="#FFFFFF" points="176.1,85.5 141,85.5 140,85.5 138.5,88.5 141,88.5 
			176.1,88.5 182,88.5 183.5,85.5 		"/>
	</g>
</g>
<g>
	<g>
		<polygon fill-rule="evenodd" clip-rule="evenodd" fill="#FFFFFF" points="38.1,115.5 3,115.5 2,115.5 0.5,118.5 3,118.5 
			38.1,118.5 44,118.5 45.5,115.5 		"/>
	</g>
</g>
<g>
	<g>
		<polygon fill-rule="evenodd" clip-rule="evenodd" fill="#FFFFFF" points="84.1,115.5 49,115.5 48,115.5 46.5,118.5 49,118.5 
			84.1,118.5 90,118.5 91.5,115.5 		"/>
	</g>
</g>
<g>
	<g>
		<polygon fill-rule="evenodd" clip-rule="evenodd" fill="#FFFFFF" points="130.3,115.5 95.2,115.5 94.3,115.5 92.7,118.5 
			95.2,118.5 130.3,118.5 136.2,118.5 137.7,115.5 		"/>
	</g>
</g>
<g>
	<g>
		<polygon fill-rule="evenodd" clip-rule="evenodd" fill="#FFFFFF" points="140,115.5 138.5,118.5 182,118.5 183.5,115.5 		"/>
	</g>
</g>
</svg>
